<svg width="800" height="240" xmlns="http://www.w3.org/2000/svg">
 <g id="Layer_1">
  <title>Layer 1</title>
  <g stroke="null">
   <g stroke="null" id="svg_145">
    <title stroke="null">Layer 1</title>
    <g stroke="null">
     <rect stroke="null" x="-63.5" y="-330.00009" width="923.99997" height="892.00008" fill="transparent"/>
     <path stroke="null" text="billionaire flight tracker" fill="url(#svg_138)" space="preserve" text-anchor="middle" offset="0.5" font-scale="contain" font-size="48" font-family="Cinzel" font-weight="400" font-style="normal" d="m28.9054,207.85363l0,0q0.82814,1.5545 0.82814,3.73079q0,2.18739 -1.8288,4.03059q-1.8173,1.83209 -4.24419,2.42057l0,0q4.02566,0.43303 6.64809,2.83141q2.62243,2.39837 2.62243,5.24088q0,2.85362 -1.12719,4.66349q-1.13869,1.82098 -3.01349,2.77589l0,0q-3.58859,1.8654 -8.12033,1.8654l0,0l-13.68724,0l0,-0.53297l0.66711,0q1.38023,0 2.31188,-0.82166q0.94315,-0.83277 1.00066,-2.05416l0,0l0,-25.16064q-0.05751,-1.75436 -1.65627,-2.4983l0,0q-0.72462,-0.37752 -1.65627,-0.37752l0,0l-0.66711,0l0,-0.53297l11.26034,0q8.22384,0 10.66225,4.41921l-0.00001,-0.00001zm0.10352,18.60955l0,0q0,-7.95014 -12.85911,-7.95014l0,0l0,-0.53297q9.71909,0 9.71909,-6.55109l0,0q0,-6.39564 -7.68326,-6.39564l0,0l-3.74962,0l0,28.78041l6.18801,0q3.74962,0 6.07299,-1.84319q2.31188,-1.83209 2.31188,-5.50736l0.00001,-0.00001zm9.44305,8.41649l0.77062,0q1.49524,0 2.59942,-0.85498q1.10418,-0.85498 1.10418,-2.02085l0,0l0,-25.16064q0,-1.16588 -1.10418,-2.02085q-1.10418,-0.85498 -2.65693,-0.85498l0,0l-0.71312,0l0,-0.53297l12.47955,0l0,0.53297l-0.72462,0q-1.48374,0 -2.56492,0.79946q-1.06968,0.79946 -1.18469,1.97643l0,0l0,25.31609q0.05751,1.16588 1.16169,1.99864q1.10418,0.82166 2.58792,0.82166l0,0l0.72462,0l0.05751,0.53297l-12.53705,0l0,-0.53297l0.00001,0.00001zm18.55024,0l0.77062,0q1.32271,0 2.24287,-0.82166q0.90865,-0.83277 0.96616,-1.99864l0,0l0,-25.21616q-0.05751,-1.16588 -1.02367,-2.02085q-0.96616,-0.85498 -2.28887,-0.85498l0,0l-0.66711,0l0,-0.53297l11.43287,0l0,0.53297l-0.66711,0q-1.32271,0 -2.28887,0.85498q-0.96616,0.85498 -0.96616,2.02085l0,0l0,26.915l8.61491,0q2.53041,0 4.30171,-0.85498q1.77129,-0.84387 2.67994,-2.02085q0.90865,-1.17698 1.79429,-3.08679l0,0l0.55209,0l-3.0365,7.61703l-22.41717,0l0,-0.53297l0.00001,0.00001zm28.26703,0l0.77062,0q1.32271,0 2.24287,-0.82166q0.90865,-0.83277 0.96616,-1.99864l0,0l0,-25.21616q-0.05751,-1.16588 -1.02367,-2.02085q-0.96616,-0.85498 -2.28887,-0.85498l0,0l-0.66711,0l0,-0.53297l11.43287,0l0,0.53297l-0.66711,0q-1.32271,0 -2.28887,0.85498q-0.96616,0.85498 -0.96616,2.02085l0,0l0,26.915l8.61491,0q2.53041,0 4.30171,-0.85498q1.77129,-0.84387 2.67994,-2.02085q0.90865,-1.17698 1.79429,-3.08679l0,0l0.55209,0l-3.0365,7.61703l-22.41717,0l0,-0.53297l0.00001,0.00001zm28.26703,0l0.77062,0q1.49524,0 2.59942,-0.85498q1.10418,-0.85498 1.10418,-2.02085l0,0l0,-25.16064q0,-1.16588 -1.10418,-2.02085q-1.10418,-0.85498 -2.65693,-0.85498l0,0l-0.71312,0l0,-0.53297l12.47955,0l0,0.53297l-0.72462,0q-1.48374,0 -2.56492,0.79946q-1.06968,0.79946 -1.18469,1.97643l0,0l0,25.31609q0.05751,1.16588 1.16169,1.99864q1.10418,0.82166 2.58792,0.82166l0,0l0.72462,0l0.05751,0.53297l-12.53705,0l0,-0.53297l0.00001,0.00001zm26.71658,-30.09063q4.25569,-2.09858 9.36253,-2.09858q5.10684,0 9.36253,2.09858q4.24419,2.10967 6.76311,5.9515q2.50741,3.83073 2.50741,8.68298q0,4.85226 -2.50741,8.68298q-2.51891,3.84183 -6.76311,5.9515q-4.25569,2.09858 -8.72993,2.09858q-4.47424,0 -7.89029,-1.22139q-3.42756,-1.2325 -5.93497,-3.40879q-2.51891,-2.18739 -3.97965,-5.3297q-1.46074,-3.15341 -1.46074,-7.38387q0,-4.24156 2.50741,-8.07229q2.51891,-3.84183 6.76311,-5.9515l0,-0.00001zm-1.01216,25.53816q4.16368,4.23046 10.35169,4.23046q6.17651,0 10.3747,-4.23046q4.19819,-4.24156 4.19819,-10.90369q0,-6.66213 -4.19819,-10.90369q-4.19819,-4.23046 -10.3747,-4.23046q-6.18801,0 -10.35169,4.23046q-4.17518,4.24156 -4.17518,10.90369q0,6.66213 4.17518,10.90369zm72.51018,-26.35984l-0.93165,0q-1.2192,0 -2.10484,0.77725q-0.88565,0.76615 -0.93165,1.8876l0,0l0,22.70676q0,3.08679 0.37956,5.86267l0,0l0.11502,0.95491l-0.49458,0l-28.7087,-26.27101l0,22.21821q0,1.17698 0.87414,1.97643q0.88565,0.79946 2.16236,0.79946l0,0l0.93165,0l0,0.53297l-10.4322,0l0,-0.53297l0.94315,0q1.26521,0 2.15085,-0.79946q0.88565,-0.79946 0.88565,-1.97643l0,0l0,-22.80669q0,-3.25334 -0.39106,-5.80716l0,0l-0.11502,-0.85498l0.6096,0.05551l28.6512,26.06003l0,-22.11827q-0.10352,-1.12145 -0.98917,-1.8876q-0.88565,-0.77725 -2.09335,-0.77725l0,0l-0.94315,0l0,-0.53297l10.4322,0l0,0.53297l0,0.00001zm38.37258,30.91229l0,0l0.43707,0l0,0.53297l-11.31785,0l0,-0.53297l0.44857,0q1.04667,0 1.59876,-0.68842q0.55209,-0.69953 0.55209,-1.31022q0,-0.6107 -0.21853,-1.19918l0,0l-3.0365,-7.08406l-13.97479,0l-3.0365,6.92861q-0.27605,0.68842 -0.27605,1.29912q0,0.6107 0.55209,1.33243q0.55209,0.72174 1.65627,0.72174l0,0l0.44857,0l0,0.53297l-10.54723,0l0,-0.53297l0.43707,0q1.16169,0 2.34638,-0.77725q1.1962,-0.76615 1.96682,-2.30954l0,0q12.08848,-24.94968 12.58306,-26.11556l0,0q0.94315,-2.24292 1.00066,-2.98686l0,0l0.49458,0l13.62973,29.10241q1.61027,3.08679 4.25569,3.08679l0.00005,-0.00001zm-18.38001,-26.49308l-6.40655,14.61227l12.58306,0l-6.17651,-14.61227zm21.58213,26.49308l0.77062,0q1.49524,0 2.59942,-0.85498q1.10418,-0.85498 1.10418,-2.02085l0,0l0,-25.16064q0,-1.16588 -1.10418,-2.02085q-1.10418,-0.85498 -2.65693,-0.85498l0,0l-0.71312,0l0,-0.53297l12.47955,0l0,0.53297l-0.72462,0q-1.48374,0 -2.56492,0.79946q-1.06968,0.79946 -1.18469,1.97643l0,0l0,25.31609q0.05751,1.16588 1.16169,1.99864q1.10418,0.82166 2.58792,0.82166l0,0l0.72462,0l0.05751,0.53297l-12.53705,0l0,-0.53297l0.00001,0.00001zm28.87893,-29.79083l0,0l-2.93298,0l0,26.915q0.05751,1.65442 1.55275,2.4983l0,0q0.71312,0.37752 1.59876,0.37752l0,0l0.71312,0l0.05751,0.53297l-11.31785,0l0,-0.53297l0.77062,0q1.27671,0 2.18535,-0.82166q0.90865,-0.83277 0.90865,-1.99864l0,0l0,-25.31609q0,-1.17698 -0.90865,-1.97643q-0.90865,-0.79946 -2.18535,-0.79946l0,0l-0.77062,0l0,-0.53297l13.85977,0q5.18735,0 8.20085,2.28733q3.00199,2.29844 3.00199,6.02923q0,3.73079 -2.42689,6.2291q-2.42689,2.5094 -6.18801,2.88692l0,0q1.77129,0.74393 4.25569,4.15273l0,0q-0.05751,0 1.90931,2.34284q1.95532,2.34284 3.14001,3.65307q1.18469,1.31022 1.96682,1.99864l0,0q2.03583,1.8654 4.69277,1.8654l0,0l0,0.53297l-1.71378,0q-4.35921,0 -6.84362,-1.65442l0,0q-1.88631,-1.22139 -3.42756,-3.03127l0,0q-0.33356,-0.43303 -2.78346,-3.76411q-2.4614,-3.33106 -2.62243,-3.54204l0,0q-2.99049,-3.57534 -5.57842,-3.57534l0,0l0,-0.53297q6.45256,0 7.78678,-0.63291l0,0q1.8173,-0.91049 2.48441,-1.92092l0,0q1.38023,-2.13188 1.38023,-4.6857l0,0q0,-3.25334 -1.98983,-5.0188q-1.98983,-1.75436 -5.35987,-1.90981l0,0q-1.48374,-0.05551 -3.41606,-0.05551zm24.28737,29.79083l0.77062,0q1.32271,0 2.24287,-0.82166q0.90865,-0.83277 0.96616,-1.99864l0,0l0,-25.31609q0,-1.17698 -0.94315,-1.97643q-0.94315,-0.79946 -2.26587,-0.79946l0,0l-0.77062,0l0,-0.53297l16.12564,0q2.25437,0 3.96815,-0.32201q1.71378,-0.32201 2.20836,-0.53297l0,0l0,6.07365l-0.6096,-0.04441l0,-0.79946q0,-1.12145 -0.77062,-1.92092q-0.77062,-0.79946 -1.98983,-0.79946l0,0l-11.47888,0l0,13.53523l9.44305,0q1.10418,0 1.67928,-0.64401q0.5866,-0.63291 0.5866,-1.59891l0,0l0,-0.68842l0.59809,0l0,7.46158l-0.59809,0l0,-0.68842q0,-1.49897 -1.16169,-2.03194l0,0q-0.44857,-0.15545 -0.94315,-0.21096l0,0l-9.60407,0l0,13.53523l8.67242,0q2.53041,0 4.2787,-0.85498q1.73678,-0.84387 2.64544,-2.02085q0.90865,-1.17698 1.85181,-3.08679l0,0l0.55209,0l-3.0365,7.61703l-22.41717,0l0,-0.53297l-0.00005,0.00002zm65.86898,-26.27101l0,-0.79946q0,-1.82098 -1.61027,-2.5094l0,0q-0.55209,-0.21096 -1.15018,-0.21096l0,0l-11.65141,0l0,13.53523l9.60407,0q1.10418,0 1.65627,-0.64401q0.55209,-0.63291 0.55209,-1.59891l0,0l0,-0.68842l0.66711,0l0,7.46158l-0.66711,0l0,-0.68842q0,-1.28801 -0.88565,-1.8654l0,0q-0.49458,-0.32201 -1.2077,-0.37752l0,0l-9.71909,0l0,11.78087q0.05751,1.43235 1.32271,2.34284l0,0q0.82814,0.53297 1.93232,0.53297l0,0l0.77062,0l0,0.53297l-11.53639,0l0,-0.53297l0.77062,0q1.32271,0 2.26587,-0.82166q0.94315,-0.83277 0.98917,-1.99864l0,0l0,-25.31609q-0.046,-1.65442 -1.59876,-2.39837l0,0q-0.77062,-0.37752 -1.65627,-0.37752l0,0l-0.77062,0l0,-0.53297l7.51073,0l8.77593,0q1.59876,0 3.53107,-0.26649q1.93232,-0.26649 2.70294,-0.58848l0,0l0,6.07365l-0.59809,-0.04441l0.00001,0.00001zm6.95174,26.27101l0.77062,0q1.32271,0 2.24287,-0.82166q0.90865,-0.83277 0.96616,-1.99864l0,0l0,-25.21616q-0.05751,-1.16588 -1.02367,-2.02085q-0.96616,-0.85498 -2.28887,-0.85498l0,0l-0.66711,0l0,-0.53297l11.43287,0l0,0.53297l-0.66711,0q-1.32271,0 -2.28887,0.85498q-0.96616,0.85498 -0.96616,2.02085l0,0l0,26.915l8.61491,0q2.53041,0 4.30171,-0.85498q1.77129,-0.84387 2.67994,-2.02085q0.90865,-1.17698 1.79429,-3.08679l0,0l0.55209,0l-3.0365,7.61703l-22.41717,0l0,-0.53297l0.00001,0.00001zm28.26703,0l0.77062,0q1.49524,0 2.59942,-0.85498q1.10418,-0.85498 1.10418,-2.02085l0,0l0,-25.16064q0,-1.16588 -1.10418,-2.02085q-1.10418,-0.85498 -2.65693,-0.85498l0,0l-0.71312,0l0,-0.53297l12.47955,0l0,0.53297l-0.72462,0q-1.48374,0 -2.56492,0.79946q-1.06968,0.79946 -1.18469,1.97643l0,0l0,25.31609q0.05751,1.16588 1.16169,1.99864q1.10418,0.82166 2.58792,0.82166l0,0l0.72462,0l0.05751,0.53297l-12.53705,0l0,-0.53297l0.00001,0.00001zm35.55002,1.2769q-8.22384,-0.05551 -13.15815,-4.55246q-4.94581,-4.50804 -4.94581,-12.20281q0,-7.70586 4.94581,-12.2139q4.93431,-4.49694 12.74408,-4.49694q7.82128,0 13.28467,3.19782l0,0l1.2077,7.56152l-0.49458,0q-1.16169,-4.6857 -4.49723,-6.92861q-3.33555,-2.23182 -9.44305,-2.23182q-6.096,0 -9.93763,4.07501q-3.83013,4.07501 -3.83013,11.05913q0,6.98414 3.86463,11.05913q3.86463,4.07501 10.67374,4.07501q6.82062,0 11.73192,-4.63018l0,0l0.05751,-7.09517q0.05751,-0.95491 -0.6326,-1.52119q-0.69011,-0.55518 -1.90931,-0.55518l0,0l-0.77062,0l0,-0.53297l10.11015,0l0,0.53297l-0.78213,0q-2.48441,0 -2.48441,2.13188l0,0l0,6.39564q-2.31188,2.77589 -6.37205,4.81894q-4.06017,2.05416 -9.36253,2.05416l0,0l0.00003,0.00001zm46.20997,-1.2769l0.66711,0q1.26521,0 2.20836,-0.82166q0.94315,-0.83277 0.98917,-1.99864l0,0l0,-11.62542l-20.36983,0l0,11.62542q0.05751,1.16588 1.00066,1.99864q0.93165,0.82166 2.20836,0.82166l0,0l0.65561,0l0,0.53297l-11.26034,0l0,-0.53297l0.66711,0q1.32271,0 2.23137,-0.85498q0.90865,-0.85498 0.96616,-2.02085l0,0l0,-25.16064q-0.05751,-1.16588 -0.98917,-2.02085q-0.94315,-0.85498 -2.20836,-0.85498l0,0l-0.66711,0l0,-0.53297l11.26034,0l0,0.53297l-0.65561,0q-1.27671,0 -2.20836,0.82166q-0.94315,0.83277 -1.00066,1.99864l0,0l0,12.04736l20.36983,0l0,-11.99183q0,-1.16588 -0.71312,-1.80987l0,0q-1.16169,-1.06594 -2.48441,-1.06594l0,0l-0.66711,0l0,-0.53297l11.27185,0l0,0.53297l-0.66711,0q-1.26521,0 -2.20836,0.79946q-0.94315,0.79946 -0.98917,1.97643l0,0l0,25.31609q0.046,1.16588 0.71312,1.75436l0,0q1.2192,1.06594 2.48441,1.06594l0,0l0.66711,0l0,0.53297l-11.27185,0l0,-0.53297zm42.01408,-29.90186l-9.98363,0l0,27.08156q0.046,1.64333 1.65627,2.44278l0,0q0.71312,0.37752 1.59876,0.37752l0,0l0.6096,0l0,0.53297l-11.37537,0l0,-0.53297l0.65561,0q1.33422,0 2.26587,-0.85498q0.94315,-0.85498 1.00066,-2.02085l0,0l0,-27.02605l-9.99514,0q-1.27671,0 -2.01283,0.79946q-0.74763,0.79946 -0.74763,1.92092l0,0l0,0.85498l-0.6096,0l0,-6.02923q1.10418,0.43303 3.11701,0.64401q2.01283,0.21096 3.01349,0.21096l0,0l18.00045,0q3.96815,0 6.17651,-0.85498l0,0l0,6.02923l-0.6096,0l0,-0.85498q0,-1.12145 -0.77062,-1.92092q-0.77062,-0.79946 -1.98983,-0.79946l0,0l0.00001,0.00001zm45.71309,0l-9.98363,0l0,27.08156q0.046,1.64333 1.65627,2.44278l0,0q0.71312,0.37752 1.59876,0.37752l0,0l0.6096,0l0,0.53297l-11.37537,0l0,-0.53297l0.65561,0q1.33422,0 2.26587,-0.85498q0.94315,-0.85498 1.00066,-2.02085l0,0l0,-27.02605l-9.99514,0q-1.27671,0 -2.01283,0.79946q-0.74763,0.79946 -0.74763,1.92092l0,0l0,0.85498l-0.6096,0l0,-6.02923q1.10418,0.43303 3.11701,0.64401q2.01283,0.21096 3.01349,0.21096l0,0l18.00045,0q3.96815,0 6.17651,-0.85498l0,0l0,6.02923l-0.6096,0l0,-0.85498q0,-1.12145 -0.77062,-1.92092q-0.77062,-0.79946 -1.98983,-0.79946l0,0l0.00001,0.00001zm17.51047,0.11104l0,0l-2.93298,0l0,26.915q0.05751,1.65442 1.55275,2.4983l0,0q0.71312,0.37752 1.59876,0.37752l0,0l0.71312,0l0.05751,0.53297l-11.31785,0l0,-0.53297l0.77062,0q1.27671,0 2.18535,-0.82166q0.90865,-0.83277 0.90865,-1.99864l0,0l0,-25.31609q0,-1.17698 -0.90865,-1.97643q-0.90865,-0.79946 -2.18535,-0.79946l0,0l-0.77062,0l0,-0.53297l13.85977,0q5.18735,0 8.20085,2.28733q3.00199,2.29844 3.00199,6.02923q0,3.73079 -2.42689,6.2291q-2.42689,2.5094 -6.18801,2.88692l0,0q1.77129,0.74393 4.25569,4.15273l0,0q-0.05751,0 1.90931,2.34284q1.95532,2.34284 3.14001,3.65307q1.18469,1.31022 1.96682,1.99864l0,0q2.03583,1.8654 4.69277,1.8654l0,0l0,0.53297l-1.71378,0q-4.35921,0 -6.84362,-1.65442l0,0q-1.88631,-1.22139 -3.42756,-3.03127l0,0q-0.33356,-0.43303 -2.78346,-3.76411q-2.4614,-3.33106 -2.62243,-3.54204l0,0q-2.99049,-3.57534 -5.57842,-3.57534l0,0l0,-0.53297q6.45256,0 7.78678,-0.63291l0,0q1.8173,-0.91049 2.48441,-1.92092l0,0q1.38023,-2.13188 1.38023,-4.6857l0,0q0,-3.25334 -1.98983,-5.0188q-1.98983,-1.75436 -5.35987,-1.90981l0,0q-1.48374,-0.05551 -3.41606,-0.05551zm57.68885,29.79083l0,0l0.43707,0l0,0.53297l-11.31785,0l0,-0.53297l0.44857,0q1.04667,0 1.59876,-0.68842q0.55209,-0.69953 0.55209,-1.31022q0,-0.6107 -0.21853,-1.19918l0,0l-3.0365,-7.08406l-13.97479,0l-3.0365,6.92861q-0.27605,0.68842 -0.27605,1.29912q0,0.6107 0.55209,1.33243q0.55209,0.72174 1.65627,0.72174l0,0l0.44857,0l0,0.53297l-10.54723,0l0,-0.53297l0.43707,0q1.16169,0 2.34638,-0.77725q1.1962,-0.76615 1.96682,-2.30954l0,0q12.08848,-24.94968 12.58306,-26.11556l0,0q0.94315,-2.24292 1.00066,-2.98686l0,0l0.49458,0l13.62973,29.10241q1.61027,3.08679 4.25569,3.08679l0.00005,-0.00001zm-18.38001,-26.49308l-6.40655,14.61227l12.58306,0l-6.17651,-14.61227zm38.69693,27.76998q-8.44239,-0.05551 -13.33068,-4.53025q-4.8883,-4.47474 -4.8883,-12.22501q0,-7.76139 4.8883,-12.23611q4.8883,-4.47474 13.33068,-4.47474l0,0q3.42756,0 6.90113,0.85498q3.47357,0.84387 6.01548,2.34284l0,0l1.2192,7.56152l-0.49458,0q-2.38089,-9.16043 -13.69874,-9.16043l0,0q-6.56757,0 -10.3747,4.0528q-3.80712,4.04169 -3.80712,11.08134l0,0q0,4.58577 1.70228,7.97235q1.71378,3.37548 4.96881,5.24088l0,0q3.26654,1.8654 7.56824,1.8654q4.30171,0 7.53373,-1.2436q3.23203,-1.25471 5.35987,-4.13052q2.12785,-2.88692 2.4039,-7.15069l0,0l0.49458,0l-0.6096,7.30614q-2.15085,3.19782 -6.23402,5.04101q-4.09467,1.83209 -8.94846,1.83209l0,0l-0.00002,0zm52.66713,-1.2769l0,0.53297l-2.03583,0q-5.41739,0 -8.12033,-3.04237l0,0l-12.14599,-12.8357l11.86994,-13.49082q0.6096,-0.74393 0.19554,-1.41016q-0.41407,-0.66621 -1.41473,-0.66621l0,0l-0.49458,0l0,-0.53297l11.26034,0l0,0.53297l-0.21853,0q-3.37005,0 -5.34838,1.92092l0,0l-12.04247,12.41377l13.69874,14.3902q0.98917,1.17698 2.03583,1.65442q1.04667,0.47746 2.76045,0.53297l0,0l0.00001,0zm-20.97943,0l0,0l0.6096,0l0,0.53297l-11.31785,0l0,-0.53297l0.66711,0q1.32271,0 2.25437,-0.85498q0.94315,-0.85498 1.00066,-2.02085l0,0l0,-25.16064q-0.05751,-1.16588 -1.00066,-2.02085q-0.93165,-0.85498 -2.25437,-0.85498l0,0l-0.66711,0l0,-0.53297l11.31785,0l0,0.53297l-0.66711,0q-1.75979,0 -2.76045,1.38795l0,0q-0.43707,0.63291 -0.43707,1.43235l0,0l0,25.27168q0,1.16588 0.96616,1.99864q0.96616,0.82166 2.28887,0.82166l0,0.00001zm23.74219,0l0.77062,0q1.32271,0 2.24287,-0.82166q0.90865,-0.83277 0.96616,-1.99864l0,0l0,-25.31609q0,-1.17698 -0.94315,-1.97643q-0.94315,-0.79946 -2.26587,-0.79946l0,0l-0.77062,0l0,-0.53297l16.12564,0q2.25437,0 3.96815,-0.32201q1.71378,-0.32201 2.20836,-0.53297l0,0l0,6.07365l-0.6096,-0.04441l0,-0.79946q0,-1.12145 -0.77062,-1.92092q-0.77062,-0.79946 -1.98983,-0.79946l0,0l-11.47888,0l0,13.53523l9.44305,0q1.10418,0 1.67928,-0.64401q0.5866,-0.63291 0.5866,-1.59891l0,0l0,-0.68842l0.59809,0l0,7.46158l-0.59809,0l0,-0.68842q0,-1.49897 -1.16169,-2.03194l0,0q-0.44857,-0.15545 -0.94315,-0.21096l0,0l-9.60407,0l0,13.53523l8.67242,0q2.53041,0 4.2787,-0.85498q1.73678,-0.84387 2.64544,-2.02085q0.90865,-1.17698 1.85181,-3.08679l0,0l0.55209,0l-3.0365,7.61703l-22.41717,0l0,-0.53297l-0.00005,0.00002zm39.92073,-29.79083l0,0l-2.93298,0l0,26.915q0.05751,1.65442 1.55275,2.4983l0,0q0.71312,0.37752 1.59876,0.37752l0,0l0.71312,0l0.05751,0.53297l-11.31785,0l0,-0.53297l0.77062,0q1.27671,0 2.18535,-0.82166q0.90865,-0.83277 0.90865,-1.99864l0,0l0,-25.31609q0,-1.17698 -0.90865,-1.97643q-0.90865,-0.79946 -2.18535,-0.79946l0,0l-0.77062,0l0,-0.53297l13.85977,0q5.18735,0 8.20085,2.28733q3.00199,2.29844 3.00199,6.02923q0,3.73079 -2.42689,6.2291q-2.42689,2.5094 -6.18801,2.88692l0,0q1.77129,0.74393 4.25569,4.15273l0,0q-0.05751,0 1.90931,2.34284q1.95532,2.34284 3.14001,3.65307q1.18469,1.31022 1.96682,1.99864l0,0q2.03583,1.8654 4.69277,1.8654l0,0l0,0.53297l-1.71378,0q-4.35921,0 -6.84362,-1.65442l0,0q-1.88631,-1.22139 -3.42756,-3.03127l0,0q-0.33356,-0.43303 -2.78346,-3.76411q-2.4614,-3.33106 -2.62243,-3.54204l0,0q-2.99049,-3.57534 -5.57842,-3.57534l0,0l0,-0.53297q6.45256,0 7.78678,-0.63291l0,0q1.8173,-0.91049 2.48441,-1.92092l0,0q1.38023,-2.13188 1.38023,-4.6857l0,0q0,-3.25334 -1.98983,-5.0188q-1.98983,-1.75436 -5.35987,-1.90981l0,0q-1.48374,-0.05551 -3.41606,-0.05551z"/>
     <g stroke="null" transform="matrix(0.455801 0 0 0.440016 91.5667 1.35465)">
      <g stroke="null">
       <path stroke="null" d="m164.91815,8.44303l0.0279,0.2101l0.2111,0.0048c7.8555,0.1841 14.5082,7.364 14.8185,7.6984c0.7074,0.546 1.3897,0.8279 1.9824,0.8279c0.2246,0 0.4356,-0.0405 0.6313,-0.1219c0.5879,-0.2458 1.0071,-0.8621 1.0919,-1.607c0.0646,-0.5556 -0.0665,-1.091 -0.3672,-1.5087l-0.1879,-0.2592l-0.2034,0.2472c-0.2438,0.2959 -0.5137,0.4746 -0.8269,0.5469c-0.7758,0.1831 -1.595,-0.399 -2.393,-0.9705c-0.212,-0.1523 -0.425,-0.305 -0.6409,-0.4457c-0.2294,-0.1446 -0.5513,-0.4019 -1.0264,-0.7821c-2.2205,-1.7771 -6.8416,-5.4745 -13.0693,-5.9246l-0.2959,-0.0212l0.08,0.6944c0.0512,0.4629 0.1071,0.9443 0.1678,1.4112z" transform="matrix(4.46204 0 0 4.46204 32.8983 17.5291)" fill="url(#svg_144)"/>
       <path stroke="null" d="m182.96425,35.70873l0.2756,-0.1311l-0.186,-0.2419c-0.7517,-0.9796 -0.8279,-2.4185 -0.9233,-4.2409c-0.0887,-1.6668 -0.1985,-3.7417 -0.8529,-6.1747l-0.0116,-0.0332c-0.1966,-0.4578 -2.0267,-4.5768 -5.6408,-8.3214c-3.5302,-3.6246 -8.3633,-4.625 -9.7608,-4.8457l-0.3383,-0.053l0.0559,0.3373c0.0713,0.4255 0.1388,0.9054 0.1976,1.4109l0.0193,0.1687l0.1638,0.0419c1.0274,0.2631 4.6038,1.3006 7.521,3.615c2.0075,1.6061 5.0346,5.3305 5.4962,8.1465c0.4645,2.8016 0.7585,7.3254 0.7671,8.8944c0.1494,0.9001 0.4944,1.4755 1.0264,1.7092c0.2043,0.0891 0.4269,0.1253 0.6525,0.1253c0.5765,-0.0001 1.174,-0.2338 1.5383,-0.4073z" transform="matrix(4.46204 0 0 4.46204 32.8983 17.5291)" fill="url(#svg_144)"/>
       <path stroke="null" d="m179.64225,16.72403l-0.027,-0.0265c-0.0646,-0.0728 -6.6913,-7.2488 -14.2942,-7.5369l-0.3055,-0.0116l0.053,0.3012c0.0646,0.3662 0.1224,0.6351 0.1821,0.8423c0.0077,0.0304 0.0675,0.2886 0.1475,0.6929l0.0347,0.1754l0.1773,0.0217c1.036,0.1277 6.406,0.9705 10.3699,5.0394c3.694,3.8285 5.5367,7.9947 5.7574,8.4983c0.7373,1.0914 1.5266,1.6673 2.2494,1.6668c0.2303,0 0.4549,-0.0588 0.6679,-0.1783c0.5676,-0.3156 0.9406,-1.0442 0.8664,-1.6947l-0.0222,-0.2009l-0.2014,-0.0169c-0.9416,-0.08 -1.5526,-1.2692 -2.3294,-2.7809c-0.7662,-1.4925 -1.7184,-3.3491 -3.3259,-4.7913z" transform="matrix(4.46204 0 0 4.46204 32.8983 17.5291)" fill="url(#svg_144)"/>
       <path stroke="null" d="m165.89835,16.31733l0.5021,0.1634c1.1584,0.3691 3.5687,1.1377 5.8615,2.9794c1.4938,1.1955 4.0535,4.0564 4.4101,9.7849c0.0713,1.2172 0.0993,2.3684 0.1272,3.4815c0.0896,3.6285 0.1754,7.056 1.6846,11.3264l0.0308,0.0598c0.3479,0.4954 0.9223,0.7517 1.6596,0.7517c0.2756,0 0.5734,-0.0357 0.8915,-0.1079l0.3335,-0.0761l-0.1773,-0.293c-1.754,-2.8927 -1.9545,-9.4784 -1.9689,-10.0499l-0.001,-0.0795c-0.0048,-1.4977 -0.2997,-6.0137 -0.7575,-8.7913c-0.4375,-2.6585 -3.4213,-6.3226 -5.3179,-7.84c-2.5626,-2.0325 -5.7391,-3.0729 -6.9862,-3.4261l-0.3373,-0.0954l0.0241,0.3498c0.0414,0.6067 0.0511,1.1709 0.0289,1.6764l-0.0078,0.1859z" transform="matrix(4.46204 0 0 4.46204 32.8983 17.5291)" fill="url(#svg_144)"/>
       <path stroke="null" d="m155.22105,19.04473c-0.7758,1.2235 -0.9204,2.5578 -0.4298,3.9658l0.132,0.3787l0.2785,-0.2891c0.6284,-0.651 1.2529,-1.0341 1.9092,-1.1714c0.4905,-0.1022 0.8009,-0.2544 0.9223,-0.453c0.1426,-0.2323 0.0511,-0.5734 -0.0559,-0.969c-0.1725,-0.6394 -0.3874,-1.436 0.3624,-2.1212l0.1542,-0.1417l-0.1147,-0.1754c-0.5166,-0.7912 -1.6769,-2.8156 -1.2972,-4.5219c0.3826,-1.7034 1.1787,-5.2481 5.5743,-6.1029c0.7055,-0.1359 1.0938,-0.2111 1.0678,-0.8741l-0.0096,-0.2448l-0.2448,0.0077c-7.7148,0.2501 -9.0833,7.7292 -9.1372,8.0453c-0.1108,0.61 0.2342,0.9917 0.6332,1.4331c0.6041,0.6684 1.3559,1.5001 0.2553,3.2339z" transform="matrix(4.46204 0 0 4.46204 32.8983 17.5291)" fill="url(#svg_144)"/>
       <path stroke="null" d="m172.63005,48.26243c-1.6586,-6.7794 -1.888,-13.5945 -1.9853,-16.5046l-0.0386,-1.0495c-0.1263,-3.8338 -0.2091,-6.3665 -4.9748,-8.3267l-0.3084,-0.1272l-0.0308,0.3325c-0.0511,0.5551 -0.1532,1.0033 -0.3045,1.3329l-0.1147,0.2501l0.2621,0.0867c1.1777,0.3903 3.1418,1.887 3.0608,7.5259c-0.1552,10.0807 3.588,23.6782 4.2125,25.2076l0.0019,0.0077c1.7318,5.3912 4.3417,6.8426 5.7429,7.2281l0.5031,0.1378l-0.212,-0.4761c-1.0331,-2.3227 -4.5054,-10.313 -5.8142,-15.6252z" transform="matrix(4.46204 0 0 4.46204 32.8983 17.5291)" fill="url(#svg_144)"/>
       <path stroke="null" d="m164.62425,24.62813l-0.2988,0.5975c-0.2679,0.5416 -0.5117,1.0259 -0.7826,1.4644l-0.1658,0.2698l0.3017,0.0949c0.7112,0.2246 1.4302,0.9777 1.3618,4.8664c-0.1581,8.0839 2.1559,17.1344 3.0898,20.7349l-0.0087,0.0058l0.0646,0.2091c0.9127,3.2093 2.4479,3.8694 3.2825,3.9774l0.3816,0.0491l-0.1147,-0.3672c-0.0414,-0.1349 -4.2038,-13.661 -4.0333,-24.7552c0.079,-5.5203 -1.7742,-6.817 -2.8854,-7.0984l-0.1927,-0.0485z" transform="matrix(4.46204 0 0 4.46204 32.8983 17.5291)" fill="url(#svg_144)"/>
       <path stroke="null" d="m157.56385,13.65403c-0.4327,1.9434 1.462,4.4843 1.4813,4.5098c0.0414,0.0554 0.0578,0.1248 0.0443,0.1937c-0.0125,0.0689 -0.052,0.1272 -0.1108,0.1643c-0.878,0.5464 -0.7151,1.1536 -0.5243,1.8591c0.1243,0.4626 0.2525,0.9411 -0.001,1.3541c-0.2005,0.3267 -0.5946,0.5416 -1.2413,0.6765c-1.1469,0.2385 -2.2214,1.3521 -3.1938,3.309l-0.0684,0.1369l3.9012,5.1517c0.0251,0.0337 0.0424,0.0728 0.0482,0.1123c0.0424,0.2727 0.0704,0.5431 0.0993,0.8129l0.08,0.7055l0.3074,-0.1378c2.3583,-1.0592 2.8189,-2.8826 3.1235,-4.0892l-0.2389,-0.0602l0.2447,0.0376c0.0665,-0.2588 0.1253,-0.4915 0.1937,-0.6876c0.0308,-0.0896 0.1118,-0.1542 0.2062,-0.1648c0.7006,-0.0781 1.3049,-1.1902 1.966,-2.5298c0.2053,-0.4139 0.4173,-0.8423 0.6235,-1.1893c0.5802,-1.0177 0.2833,-3.9976 0.1118,-5.1247l0.0039,-0.0178l-0.0039,-0.0453c-0.0039,-0.0352 0.001,-0.0675 0.0125,-0.0988l0.0173,-0.0516c0.0154,-0.0212 0.0366,-0.0414 0.0665,-0.0631l0.0453,-0.04c1.224,-0.9589 0.4337,-6.5414 0.0202,-7.9408c-0.1995,-0.6929 -0.3392,-1.7632 -0.4597,-2.8161l-0.054,-0.4756l-0.3556,0.32c-0.2274,0.2048 -0.6062,0.3566 -1.1575,0.4636c-3.5868,0.6971 -4.6132,3.1634 -5.1876,5.7255z" transform="matrix(4.46204 0 0 4.46204 32.8983 17.5291)" fill="url(#svg_144)"/>
       <path stroke="null" d="m160.87435,31.23453l-0.4057,0.4308c-0.5407,0.5729 -1.2403,1.0394 -2.0798,1.3854l-0.1658,0.0684l0.0145,0.1793c0.4558,5.727 0.8076,7.7311 1.6345,10.846c0.5156,1.9439 1.3136,3.2507 2.3062,3.7779c0.3113,0.1648 0.6399,0.2506 0.9792,0.2564l0.3344,0.0058l-0.0935,-0.3209c-2.0046,-6.9023 -2.419,-13.5145 -2.5038,-16.0371l-0.0202,-0.592z" transform="matrix(4.46204 0 0 4.46204 32.8983 17.5291)" fill="url(#svg_144)"/>
       <path stroke="null" d="m163.19215,27.71063l-0.0771,-0.2612l-0.1195,-0.0154l-0.0858,0.0848c-0.2255,0.2236 -0.4414,0.3691 -0.6602,0.4457l-0.1224,0.0424l-0.0347,0.1253c-0.0337,0.1248 -0.0684,0.2592 -0.1041,0.4019c-0.1214,0.4809 -0.2872,1.1401 -0.6081,1.8027l-0.0241,0.0723l0.0058,0.0665c-0.001,0.0858 -0.0655,8.6867 2.6349,17.6914l3.4579,3.8569l-0.239,-0.956c-1.8726,-7.4912 -2.7708,-13.9362 -2.6686,-19.1553l0,-0.0005c0.0704,-3.9788 -0.6505,-4.3817 -1.3319,-4.4472l-0.0231,0.2457z" transform="matrix(4.46204 0 0 4.46204 32.8983 17.5291)" fill="url(#svg_144)"/>
       <path stroke="null" d="m188.34775,71.21103c-8.2323,-15.4661 -10.2292,-26.4682 -10.3207,-26.9693c-1.541,-4.3436 -1.6287,-7.8217 -1.7203,-11.5037c-0.0279,-1.1059 -0.0559,-2.2494 -0.1263,-3.4632c-0.3469,-5.5386 -2.7977,-8.2858 -4.2279,-9.4297c-2.2205,-1.7848 -4.573,-2.5342 -5.7073,-2.8956l-0.3913,-0.1272l-0.0472,0.2838c-0.0819,0.5026 -0.1995,0.8891 -0.3595,1.1825l-0.1349,0.2477l0.2631,0.1007c2.1251,0.8144 7.7707,2.9784 8.4636,11.2045c0.1195,1.3729 0.2246,2.6782 0.3248,3.9287c0.5648,7.0454 0.9734,12.1359 3.057,17.7439c1.8359,4.9315 6.4098,16.4154 6.4648,16.5503c1.5314,3.0252 3.3143,3.4965 4.2414,3.509l0.4163,0.0058l-0.1956,-0.3682z" transform="matrix(4.46204 0 0 4.46204 32.8983 17.5291)" fill="url(#svg_144)"/>
       <path stroke="null" d="m176.95825,51.68663c-2.1067,-5.6707 -2.5385,-11.0551 -3.0849,-17.8716l-0.001,-0.0053c-0.1002,-1.2495 -0.2053,-2.5539 -0.3248,-3.9263c-0.6659,-7.8988 -6.1911,-10.0297 -8.0068,-10.7303l-0.3797,-0.146l0.0463,0.4038c0.0588,0.5238 0.1291,1.3223 0.1301,2.1549l0,0.1682l0.1571,0.0612c5.3815,2.0981 5.475,4.9498 5.6051,8.8973l0.0385,1.0596c0.0983,2.897 0.3286,9.6822 1.9699,16.3928c1.4639,5.9395 5.5608,15.0546 6.1304,16.3094l0.001,0.1937l0.0887,0c1.302,2.7785 2.817,3.2825 3.6121,3.3326l0.3884,0.0251l-0.1436,-0.3624c-1.0612,-2.6706 -4.6473,-11.7143 -6.2268,-15.9567z" transform="matrix(4.46204 0 0 4.46204 32.8983 17.5291)" fill="url(#svg_144)"/>
      </g>
      <g stroke="null">
       <g stroke="null" fill="#ce952d">
        <path stroke="null" d="m148.81405,64.43593l-0.2342,0.1822c-0.0289,0.0222 -0.0607,0.0501 -0.1214,0.1041c-0.1436,0.1234 -0.2843,0.2727 -0.4192,0.4433c-0.2843,0.3604 -0.5021,0.7999 -0.6476,1.3059l-0.0077,0.134l0.053,0.1552c0.0954,0.2785 0.1465,0.558 0.1503,0.8307l0.0077,0.4992l0.3922,-0.3094c0.0732,-0.0578 0.1475,-0.1156 0.2284,-0.1706c0.1041,-0.0704 0.2111,-0.1388 0.3277,-0.2024l0.1031,-0.106c0.1581,-0.2361 0.2891,-0.4944 0.3903,-0.7681l0.0289,-0.0752c0.0492,-0.1301 0.0964,-0.2602 0.1195,-0.3942c0.0385,-0.238 0.0366,-0.4809 -0.0067,-0.7189c-0.0318,-0.1754 -0.0954,-0.3547 -0.1947,-0.559l-0.1696,-0.3508z" transform="matrix(4.46204 0 0 4.46204 32.8983 17.5291)" fill="#ce952d"/>
        <path stroke="null" d="m145.63465,68.22543l0.2445,-0.0616l0,0.0001l-0.2271,0.0953c0.1484,0.3547 0.2284,0.7257 0.2352,1.1016l0.0125,0.6708l0.425,-0.5195c0.0935,-0.1137 0.1735,-0.2361 0.2612,-0.371l0.0366,-0.054c0.0347,-0.0501 0.0694,-0.1002 0.0983,-0.1523c0.0569,-0.0983 0.0993,-0.2014 0.16,-0.3469l0.0357,-0.0829c0.0492,-0.1118 0.0973,-0.2226 0.1253,-0.3402c0.0212,-0.0887 0.0231,-0.1677 0.0251,-0.238l0.0039,-0.0848c0.0299,-0.318 -0.0029,-0.6255 -0.1041,-0.9339c-0.0048,-0.0308 -0.0125,-0.0732 -0.0328,-0.1214l-0.1532,-0.2882l-0.2573,0.2159c-0.0597,0.0501 -0.1205,0.105 -0.1879,0.1715l-0.0761,0.0848c-0.134,0.1417 -0.2515,0.2891 -0.3595,0.4501c-0.1002,0.1503 -0.1995,0.3286 -0.2959,0.5301l-0.0482,0.1012l0.0788,0.1733z" transform="matrix(4.46204 0 0 4.46204 32.8983 17.5291)" fill="#ce952d"/>
        <path stroke="null" d="m151.39785,67.51703c-0.2592,-0.052 -0.5137,-0.0829 -0.7565,-0.0916c-0.5011,-0.0183 -0.9849,0.0578 -1.4254,0.2217l-0.0704,0.0251c-0.054,0.0173 -0.1079,0.0357 -0.1542,0.0578c-0.1783,0.08 -0.3527,0.1802 -0.5484,0.3142c-0.1532,0.107 -0.2882,0.2168 -0.4086,0.3277c-0.0742,0.0684 -0.1474,0.1369 -0.2091,0.2024l-0.4539,0.4848l0.6602,-0.0704c0.0935,-0.0106 0.1889,-0.0154 0.2833,-0.0193l0.1099,0c0.1532,0 0.3007,0.0058 0.4568,0.0222c0.2602,0.027 0.5301,0.08 0.8038,0.159l0.0742,0.0212l0.0723,-0.0241c0.4886,-0.1638 0.9551,-0.4212 1.3868,-0.7652c0.1397,-0.1118 0.267,-0.2217 0.3816,-0.3315l-0.1128,-0.1282l0.0058,-0.0202l0.1542,0.105l0.3653,-0.3508l-0.4298,-0.1089c-0.0463,-0.0116 -0.0878,-0.0174 -0.1851,-0.0309z" transform="matrix(4.46204 0 0 4.46204 32.8983 17.5291)" fill="#ce952d"/>
        <path stroke="null" d="m152.22855,63.16483c0.0077,-0.3527 -0.052,-0.7315 -0.1802,-1.1363l-0.0289,-0.0935c-0.0279,-0.0935 -0.0559,-0.186 -0.0954,-0.2824l-0.1571,-0.3845l-0.2621,0.3219c-0.0212,0.026 -0.0443,0.0598 -0.0848,0.1214c-0.0386,0.0578 -0.0781,0.1243 -0.1166,0.1966c-0.054,0.0973 -0.107,0.2082 -0.159,0.3354c-0.0713,0.1744 -0.1397,0.3816 -0.2014,0.6158l-0.0385,0.1552l0.0385,0.0819c0.1879,0.3903 0.2708,0.7961 0.2486,1.2047c-0.0029,0.0299 -0.0019,0.0607 0.0019,0.1195c-0.0029,0.0231 -0.0096,0.0434 -0.0154,0.0655c-0.0087,0.0318 -0.0164,0.0636 -0.0222,0.0973l-0.1436,0.8192l0.5667,-0.6091c0.1426,-0.1532 0.2708,-0.3363 0.3807,-0.5435l-0.2176,-0.1156l0.2456,0.0645c0.0299,-0.053 0.0598,-0.107 0.0838,-0.1677c0.0125,-0.0328 0.0212,-0.0665 0.0289,-0.1012l-0.2419,-0.0511l0.2592,-0.0173c0.0675,-0.2139 0.1041,-0.4471 0.1108,-0.6967z" transform="matrix(4.46204 0 0 4.46204 32.8983 17.5291)" fill="#ce952d"/>
        <path stroke="null" d="m149.52815,70.19333c0.0578,-0.0463 0.1157,-0.0916 0.1658,-0.134l0.3508,-0.292l-0.4375,-0.133c-0.1956,-0.0598 -0.3807,-0.0925 -0.5638,-0.1214c-0.2371,-0.0376 -0.4722,-0.054 -0.6737,-0.0501c-0.1706,0.0039 -0.3315,0.0222 -0.4886,0.0472c-0.1879,0.0299 -0.3653,0.0723 -0.5628,0.1349c-0.1638,0.0549 -0.319,0.1176 -0.4636,0.1889c-0.0838,0.0405 -0.1638,0.0829 -0.2438,0.1282c-0.159,0.0925 -0.3036,0.1899 -0.4346,0.2891l-0.5628,0.4279l0.8394,0.0202c0.265,0.0125 0.4925,0.0424 0.7151,0.0935c0.1985,0.0443 0.4067,0.106 0.6563,0.1976l0.1388,0.0549l0.0829,-0.0279c0.1475,-0.0492 0.2882,-0.107 0.4231,-0.1687c0.1793,-0.0829 0.3498,-0.1715 0.506,-0.2679c0.1532,-0.0935 0.2968,-0.1899 0.4231,-0.2853l0.0646,-0.0511l-0.1465,-0.1773c0.0058,0.001 0.0116,0.0019 0.0164,0.0039l0.1954,0.1224z" transform="matrix(4.46204 0 0 4.46204 32.8983 17.5291)" fill="#ce952d"/>
        <path stroke="null" d="m152.73555,63.72473l0.4636,-0.6264c0.0251,-0.0318 0.0501,-0.0626 0.0742,-0.0973c0.0964,-0.1378 0.1841,-0.2882 0.2814,-0.4616c0.0453,-0.0819 0.0838,-0.1648 0.1224,-0.2486c0.1841,-0.3961 0.2747,-0.7488 0.2766,-1.0746l0.0029,-0.0096l-0.001,-0.0366c-0.0029,-0.1542 -0.0299,-0.3142 -0.0819,-0.4896c-0.0867,-0.293 -0.2429,-0.5638 -0.4655,-0.8057l-0.1735,-0.1889l-0.1821,0.1821c-0.0492,0.0482 -0.1012,0.1099 -0.1523,0.1735c-0.1937,0.2371 -0.451,0.6447 -0.5725,1.2432l-0.0154,0.0751l0.0838,0.1899c0.026,0.0569 0.053,0.1147 0.0732,0.1706c0.1263,0.3566 0.2072,0.7035 0.24,1.0312l0,0.0385c0.0039,0.0386 0.0019,0.0752 0.001,0.1128c0,0.0376 -0.001,0.0752 0,0.1137l0.0251,0.7083z" transform="matrix(4.46204 0 0 4.46204 32.8983 17.5291)" fill="#ce952d"/>
        <path stroke="null" d="m152.53605,66.59953c0.2592,-0.1725 0.5069,-0.371 0.7161,-0.5734l0.3749,-0.3624l-0.5185,-0.0597c-0.1349,-0.0164 -0.2631,-0.0183 -0.3903,-0.0193l-0.0453,0.2458l0.0039,-0.2467c-0.3412,0 -0.6823,0.0308 -0.9965,0.1022l-0.0752,0.0164c-0.0607,0.0135 -0.1205,0.026 -0.1821,0.0434c-0.0819,0.026 -0.1581,0.0559 -0.2901,0.1079c-0.16,0.0617 -0.3094,0.1301 -0.4857,0.2236c-0.0588,0.0318 -0.1156,0.0646 -0.1744,0.1012l-0.6891,0.7575l0.6949,-0.0193c0.2274,-0.0039 0.4028,0.0116 0.6226,0.0405c0.1436,0.0193 0.2949,0.052 0.4539,0.0858l0.0713,0.0154l0.1349,-0.0501c0.0434,-0.0145 0.0867,-0.0308 0.1311,-0.0491c0.1706,-0.0752 0.3277,-0.1619 0.4761,-0.2515c0.0412,-0.0253 0.0807,-0.0513 0.1675,-0.1082z" transform="matrix(4.46204 0 0 4.46204 32.8983 17.5291)" fill="#ce952d"/>
        <path stroke="null" d="m143.63005,71.95603l0.4819,-0.4395c0.1022,-0.0935 0.2188,-0.1841 0.346,-0.2718l0.0019,-0.001c0.0935,-0.0655 0.1956,-0.1272 0.3094,-0.1889l0.0916,-0.079c0.0482,-0.0675 0.0906,-0.1407 0.133,-0.2149l-0.1841,-0.1754l0.2323,0.0916l0.0347,-0.0569c0.133,-0.2496 0.2178,-0.4665 0.2679,-0.6843c0.0935,-0.4163 0.0732,-0.825 -0.0626,-1.248c-0.0318,-0.1022 -0.0655,-0.2043 -0.1128,-0.3074l-0.134,-0.2949l-0.2486,0.2082c-0.1205,0.1002 -0.3045,0.2727 -0.4944,0.5233c-0.3074,0.4057 -0.5079,0.8818 -0.5966,1.4157l-0.0058,0.0357l0.0048,0.0357c0.0405,0.3229 0.0424,0.6611 0.0048,1.0042l-0.0694,0.6476z" transform="matrix(4.46204 0 0 4.46204 32.8983 17.5291)" fill="#ce952d"/>
        <path stroke="null" d="m154.22735,63.62543c0.3537,-0.0289 0.6891,-0.0318 1.0264,-0.0039l0.0655,0.0058l0.0597,-0.0289c0.2477,-0.1166 0.4722,-0.2554 0.6939,-0.4356l0.0501,-0.0395c0.1243,-0.1089 0.2294,-0.2168 0.3363,-0.3421c0.0463,-0.054 0.0916,-0.1079 0.1291,-0.16l0.2727,-0.3759l-0.4636,-0.0164c-0.0819,-0.0029 -0.1571,0.001 -0.2313,0.0039l-0.0916,0.0039c-0.2409,0.0087 -0.4674,0.0308 -0.6737,0.0684c-0.4626,0.0848 -0.8857,0.239 -1.3068,0.4876c-0.0453,0.0251 -0.0896,0.0511 -0.1301,0.0781l-0.1812,0.2458c-0.0337,0.053 -0.0675,0.107 -0.1022,0.1571l-0.3257,0.4626l0.5609,-0.0761c0.1025,-0.0145 0.2066,-0.0251 0.3116,-0.0348z" transform="matrix(4.46204 0 0 4.46204 32.8983 17.5291)" fill="#ce952d"/>
        <path stroke="null" d="m144.50615,72.52373l0.0723,0.0202c0.346,0.106 0.6679,0.1513 0.9647,0.1513c0.7479,0 1.3377,-0.2824 1.7424,-0.5648c0.1388,-0.0973 0.266,-0.1976 0.371,-0.292l0.3094,-0.2785l-0.3932,-0.1378c-0.8731,-0.3055 -1.6644,-0.3209 -2.3737,-0.0395c-0.4771,0.1976 -0.7922,0.4848 -0.9724,0.692l-0.2313,0.266l0.3286,0.1263c0.0636,0.024 0.1224,0.0404 0.1822,0.0568z" transform="matrix(4.46204 0 0 4.46204 32.8983 17.5291)" fill="#ce952d"/>
        <path stroke="null" d="m157.25065,61.50333c0.1397,-0.1118 0.2679,-0.2274 0.3845,-0.3469c0.2188,-0.2236 0.4192,-0.4684 0.5802,-0.7074l0.2862,-0.425l-0.5108,0.0414c-0.0655,0.0048 -0.1253,0.0145 -0.1841,0.0241l-0.0935,0.0145c-0.5117,0.0665 -0.9734,0.1908 -1.3994,0.3816c-0.1696,0.079 -0.3257,0.1629 -0.4664,0.2535c-0.1185,0.0761 -0.2246,0.1552 -0.3238,0.2352l0.1551,0.1917l-0.1888,-0.1657c-0.0251,0.0193 -0.0492,0.0386 -0.0887,0.0713c-0.0385,0.0347 -0.0723,0.0694 -0.1272,0.1262l-0.0858,0.1484c-0.0154,0.0337 -0.0299,0.0665 -0.0472,0.0973l-0.2602,0.4549l0.5166,-0.0896c0.1378,-0.0241 0.2804,-0.0424 0.4722,-0.0598c0.213,-0.0154 0.4414,-0.0173 0.6775,-0.0087c0.0463,0.0019 0.0954,0.0068 0.1436,0.0116l0.1985,0.0173l0.0713,-0.0482c0.1042,-0.0693 0.1986,-0.1435 0.2902,-0.2177z" transform="matrix(4.46204 0 0 4.46204 32.8983 17.5291)" fill="#ce952d"/>
        <path stroke="null" d="m154.95015,60.60893c0.0164,-0.0386 0.0318,-0.079 0.0434,-0.1243l0.0106,-0.0781c0.0434,-0.2178 0.0569,-0.453 0.0424,-0.7161c-0.0019,-0.0453 -0.0058,-0.0906 -0.0096,-0.1369c-0.0318,-0.319 -0.1108,-0.6505 -0.238,-0.984l-0.0829,-0.2072c-0.0318,-0.0819 -0.0636,-0.1638 -0.1041,-0.2477l-0.2274,-0.4693l-0.2785,0.6158c-0.0752,0.1899 -0.1378,0.3999 -0.187,0.6235l-0.0328,0.16c-0.0251,0.1417 -0.0424,0.2978 -0.054,0.4636l-0.0077,0.0983l0.0626,0.0761c0.105,0.1282 0.1947,0.2602 0.2689,0.3932c0.1128,0.2062 0.1918,0.4366 0.2409,0.7035l0.1744,0.8076l0.3151,-0.8067c0.0165,-0.0412 0.0329,-0.0836 0.0637,-0.1713z" transform="matrix(4.46204 0 0 4.46204 32.8983 17.5291)" fill="#ce952d"/>
        <path stroke="null" d="m155.49565,64.08223l-0.8105,0.0106c-0.052,0.001 -0.1012,0.0048 -0.1503,0.0087l-0.0742,0.0048c-0.2323,0.0116 -0.4539,0.0366 -0.664,0.0732l-0.1638,0.026c-0.1947,0.0405 -0.3807,0.0906 -0.558,0.1475c-0.0935,0.0299 -0.1812,0.0636 -0.267,0.0973c-0.0829,0.0308 -0.1638,0.0636 -0.2429,0.0983l-1.1709,0.5763l1.1623,-0.0347c0.053,-0.001 0.107,-0.0019 0.1629,-0.0019c0.2409,0.0048 0.4645,0.0241 0.6814,0.0578c0.0405,0.0058 0.081,0.0154 0.1224,0.0251l0.1667,0.0347l0.0752,-0.0357c0.1224,-0.0588 0.238,-0.1205 0.4019,-0.2111l0.1147,-0.0665c0.1455,-0.0858 0.2804,-0.1715 0.4057,-0.2554l0.8084,-0.555z" transform="matrix(4.46204 0 0 4.46204 32.8983 17.5291)" fill="#ce952d"/>
        <path stroke="null" d="m149.61685,65.04123c0.0077,0.0279 0.0106,0.0578 0.0145,0.0867c0.0039,0.0337 0.0087,0.0684 0.0202,0.1282c0.0145,0.0742 0.0289,0.1484 0.0357,0.2178l0.052,0.8491l0.4144,-0.6062c0.0405,-0.0588 0.0781,-0.1166 0.1176,-0.1812l0.0607,-0.1137l0.001,-0.001c0.0752,-0.1301 0.1494,-0.2602 0.2043,-0.4c0.0896,-0.2284 0.1436,-0.4414 0.1648,-0.69c0.0405,-0.4703 -0.0858,-0.9233 -0.3691,-1.3386l-0.1638,-0.2458l-0.2111,0.1821c-0.0983,0.0848 -0.2053,0.1995 -0.3074,0.3296c-0.1195,0.1494 -0.2255,0.32 -0.3151,0.504c-0.0424,0.0848 -0.0838,0.1715 -0.1195,0.2708l-0.0424,0.1156l0.0665,0.1031c0.1878,0.2902 0.3102,0.5485 0.3767,0.7895z" transform="matrix(4.46204 0 0 4.46204 32.8983 17.5291)" fill="#ce952d"/>
        <path stroke="null" d="m159.30245,58.39903l-0.4491,0c-0.2949,0 -0.5792,0.0308 -0.8944,0.0973c-0.212,0.0443 -0.4086,0.1022 -0.5869,0.1725c-0.1889,0.0752 -0.3585,0.159 -0.505,0.2496l-0.0675,0.0385c-0.1079,0.0704 -0.2034,0.1446 -0.2949,0.2217c-0.1253,0.106 -0.239,0.214 -0.3363,0.3238l-0.6438,0.7276l0.9127,-0.3315c0.0549,-0.0202 0.1118,-0.0386 0.1889,-0.0636c0.2303,-0.0761 0.4597,-0.134 0.7016,-0.1783c0.1976,-0.0366 0.4067,-0.0626 0.6284,-0.08c0.1224,-0.0106 0.2506,-0.0145 0.3797,-0.0183l0.1388,-0.0434l0.0684,-0.0684c0.0405,-0.0395 0.081,-0.079 0.1176,-0.1195l0.0973,-0.1176c0.1224,-0.1494 0.2313,-0.2968 0.3171,-0.4318l0.2274,-0.3786z" transform="matrix(4.46204 0 0 4.46204 32.8983 17.5291)" fill="#ce952d"/>
        <path stroke="null" d="m160.00695,57.20593l0.001,-0.001c0.0954,-0.1301 0.1821,-0.2602 0.2506,-0.3787l0.2062,-0.3633l-0.4173,-0.0058c-0.0251,0 -0.0482,-0.001 -0.0723,-0.001c-0.9184,0 -1.6702,0.2486 -2.2349,0.7392l-0.0463,0.0405l-0.0626,0.1802c-0.027,0.0675 -0.0559,0.1311 -0.0848,0.1937l-0.2294,0.5079l0.4799,-0.105c0.4057,-0.0887 0.8712,-0.1205 1.3878,-0.0887l0.0906,0.0048l0.0713,-0.054c0.2477,-0.185 0.4694,-0.4095 0.6602,-0.6688z" transform="matrix(4.46204 0 0 4.46204 32.8983 17.5291)" fill="#ce952d"/>
        <path stroke="null" d="m157.77875,52.39983l-0.213,-0.2429l-0.1783,0.2698c-0.0925,0.1407 -0.2294,0.373 -0.3527,0.6804c-0.052,0.1301 -0.0983,0.2698 -0.1378,0.4192l-0.0366,0.1407l0.1927,0.1821c0.0578,0.053 0.1156,0.105 0.1648,0.1619c0.2294,0.266 0.4028,0.5657 0.532,0.9165l0.2756,0.7151l0.2072,-0.6929c0.0337,-0.1099 0.0636,-0.2226 0.0964,-0.3826c0.0096,-0.0376 0.0193,-0.0752 0.0251,-0.1156c0.0357,-0.2409 0.0443,-0.4626 0.0251,-0.6765c-0.0386,-0.4134 -0.1937,-0.8009 -0.504,-1.2336c-0.0232,-0.0404 -0.0512,-0.0906 -0.0965,-0.1416z" transform="matrix(4.46204 0 0 4.46204 32.8983 17.5291)" fill="#ce952d"/>
        <path stroke="null" d="m159.38345,51.29153c-0.0973,-0.3932 -0.2554,-0.7122 -0.4828,-0.9772l-0.212,-0.2467l-0.1802,0.2708c-0.1899,0.2853 -0.4356,0.7642 -0.532,1.4302l-0.0173,0.1185l0.0829,0.0867c0.32,0.3373 0.5493,0.7055 0.6794,1.0919l0.1619,0.4819l0.2872,-0.3238l0.0973,-0.1359c0.1764,-0.5166 0.2448,-1.0013 0.2024,-1.4408c-0.0096,-0.1022 -0.0366,-0.1889 -0.0607,-0.266l-0.0261,-0.0896z" transform="matrix(4.46204 0 0 4.46204 32.8983 17.5291)" fill="#ce952d"/>
        <path stroke="null" d="m156.89215,57.97893l0.2988,-0.8038c0.0328,-0.0867 0.0626,-0.1715 0.0916,-0.266c0.0395,-0.1301 0.0704,-0.266 0.0954,-0.4019c0.0588,-0.3065 0.0761,-0.5628 0.054,-0.8095c-0.0414,-0.4616 -0.2168,-0.8809 -0.5368,-1.2818l-0.1369,-0.1715l-0.186,0.1166c-0.026,0.0164 -0.052,0.026 -0.08,0.0318l-0.1108,0.0222l-0.0549,0.0983c-0.1715,0.3045 -0.292,0.6467 -0.3672,1.062l-0.0337,0.2101l0.1311,0.1369c0.0183,0.0164 0.0357,0.0337 0.0511,0.052c0.2727,0.32 0.4655,0.6794 0.5715,1.0688l0.0357,-0.0087c0,0.0019 0,0.0029 -0.001,0.0039l0.0704,0.027l-0.0935,0.0376l0.1677,-0.0087l0.0337,0.0125l-0.1899,0.0704l0.1897,0.8018z" transform="matrix(4.46204 0 0 4.46204 32.8983 17.5291)" fill="#ce952d"/>
        <path stroke="null" d="m161.26075,54.91223l0.1667,-0.3681l-0.4211,0c-0.0771,0 -0.1494,0.0058 -0.2217,0.0125l-0.0858,0.0077c-0.5233,0.0376 -0.983,0.1687 -1.3888,0.4038c-0.0964,0.0559 -0.1927,0.1118 -0.2776,0.1783c-0.1205,0.0935 -0.2332,0.2005 -0.3547,0.3383l-0.001,0c-0.0732,0.0848 -0.1436,0.1696 -0.2033,0.2564l-0.3884,0.558l0.6563,-0.1793c0.4375,-0.1205 0.9242,-0.1764 1.4504,-0.1484l0.0858,0.0029l0.0694,-0.0501c0.1388,-0.1012 0.267,-0.212 0.4048,-0.3498c0.2074,-0.2073 0.3828,-0.4366 0.509,-0.6622z" transform="matrix(4.46204 0 0 4.46204 32.8983 17.5291)" fill="#ce952d"/>
        <path stroke="null" d="m155.55735,59.44953l0.3161,-0.3441c0.027,-0.0299 0.0569,-0.0588 0.1301,-0.1311l0.0887,-0.1764c0.0752,-0.2101 0.1282,-0.4327 0.159,-0.6582c0.0087,-0.0597 0.0116,-0.1205 0.0125,-0.1812l0.0096,-0.1436c0.0077,-0.0732 0.0135,-0.1465 0.0077,-0.2188c-0.0077,-0.106 -0.026,-0.2062 -0.0482,-0.3045c-0.0588,-0.2804 -0.1715,-0.5435 -0.3354,-0.7845c-0.0694,-0.1002 -0.1455,-0.1995 -0.2342,-0.2959l-0.1985,-0.2149l-0.1783,0.2323c-0.0501,0.0655 -0.1022,0.1426 -0.1523,0.2265c-0.0463,0.0752 -0.0906,0.1619 -0.132,0.2525c-0.0424,0.0906 -0.08,0.1918 -0.1166,0.2997c-0.0337,0.1012 -0.0607,0.212 -0.0858,0.3286l-0.0202,0.0925l0.0472,0.0819c0.3171,0.5561 0.5214,1.0418 0.6245,1.4842l0.1061,0.455z" transform="matrix(4.46204 0 0 4.46204 32.8983 17.5291)" fill="#ce952d"/>
        <path stroke="null" d="m159.92695,52.60703l0.4221,-0.3103c0.6428,-0.4722 1.4148,-1.1459 1.435,-1.6634c0.0087,-0.1773 -0.0848,-0.3296 -0.2882,-0.4664c-0.3363,-0.2197 -0.6659,-0.1446 -0.8018,-0.0617c-0.4009,0.2448 -0.6496,0.8471 -0.7623,1.1844l-0.0193,0.0569l0.0096,0.0598c0.0058,0.0366 0.0135,0.0713 0.0222,0.106c0.0067,0.0299 0.0145,0.0598 0.0173,0.0916c0.0145,0.1503 0.0048,0.2988 -0.0039,0.4472l-0.0307,0.5559z" transform="matrix(4.46204 0 0 4.46204 32.8983 17.5291)" fill="#ce952d"/>
        <path stroke="null" d="m159.19545,53.96973l-0.4539,0.6737l0.7517,-0.3074c0.0646,-0.026 0.132,-0.0472 0.1995,-0.0684l0.0598,-0.0183c0.4433,-0.1397 0.9474,-0.2005 1.4967,-0.1744l0.105,0.0039l0.0752,-0.0713c0.4269,-0.4057 0.7209,-0.8606 0.8924,-1.1719l0.2043,-0.3701l-0.4221,0.0039c-0.6563,0.0058 -1.2509,0.1542 -1.7685,0.4433c-0.1108,0.0626 -0.2091,0.1311 -0.3065,0.2014c-0.1137,0.0819 -0.2188,0.1658 -0.3151,0.2554c-0.2053,0.1916 -0.3797,0.394 -0.5185,0.6002z" transform="matrix(4.46204 0 0 4.46204 32.8983 17.5291)" fill="#ce952d"/>
       </g>
       <g stroke="null" fill="#ce952d">
        <path stroke="null" d="m130.12755,61.72113l0.0713,0.0482l0.198,-0.0173c0.0487,-0.0048 0.0973,-0.0096 0.1417,-0.0116c0.2366,-0.0106 0.4655,-0.0067 0.7204,0.0135c0.1499,0.0125 0.2935,0.0308 0.4322,0.0549l0.5156,0.0887l-0.2592,-0.4539c-0.0193,-0.0337 -0.0361,-0.0704 -0.053,-0.107l-0.1055,-0.1648c-0.0328,-0.0328 -0.0651,-0.0655 -0.121,-0.1147l-0.1031,-0.0829c-0.0993,-0.08 -0.2067,-0.159 -0.3262,-0.2361c-0.1402,-0.0896 -0.2959,-0.1735 -0.493,-0.2631c-0.3975,-0.1802 -0.8592,-0.3045 -1.3714,-0.371l-0.0935,-0.0145c-0.0597,-0.0096 -0.119,-0.0193 -0.1846,-0.0241l-0.5103,-0.0414l0.2858,0.425c0.1609,0.239 0.3614,0.4838 0.5802,0.7074c0.1171,0.1195 0.2453,0.2352 0.3836,0.346c0.094,0.076 0.1884,0.1493 0.292,0.2187z" transform="matrix(4.46204 0 0 4.46204 32.8983 17.5291)" fill="#ce952d"/>
        <path stroke="null" d="m131.01135,62.23673l-0.0911,-0.0039c-0.0742,-0.0029 -0.1503,-0.0068 -0.2303,-0.0039l-0.4669,0.0164l0.2771,0.3768c0.04,0.054 0.0872,0.1108 0.1436,0.1773c0.0916,0.107 0.1966,0.2149 0.3209,0.3229l0.0781,0.0626c0.1942,0.1571 0.4183,0.2968 0.6655,0.4134l0.0598,0.0289l0.066,-0.0058c0.3363,-0.0289 0.6732,-0.026 1.0259,0.0039c0.106,0.0096 0.2101,0.0202 0.3123,0.0347l0.557,0.0752l-0.3214,-0.4607c-0.0323,-0.0472 -0.0641,-0.0964 -0.0954,-0.1465l-0.1891,-0.2572c-0.0395,-0.026 -0.0829,-0.0511 -0.1797,-0.106c-0.3715,-0.2207 -0.7946,-0.3749 -1.2577,-0.4597c-0.2058,-0.0376 -0.4327,-0.0598 -0.6746,-0.0684z" transform="matrix(4.46204 0 0 4.46204 32.8983 17.5291)" fill="#ce952d"/>
        <path stroke="null" d="m136.16735,62.94693l-0.0231,-0.0877c-0.0598,-0.2294 -0.1272,-0.4366 -0.2005,-0.6149c-0.0525,-0.1282 -0.1055,-0.24 -0.159,-0.3363c-0.0405,-0.0742 -0.0795,-0.1407 -0.1417,-0.2332c-0.0198,-0.0299 -0.0395,-0.0588 -0.0578,-0.0819l-0.2621,-0.3296l-0.1595,0.3894c-0.04,0.0973 -0.0684,0.1908 -0.0969,0.2853l-0.0323,0.1022c-0.1238,0.3961 -0.1826,0.7748 -0.1749,1.1256c0.0053,0.2467 0.0424,0.4819 0.1108,0.6987l0.0169,0.0646c0.0072,0.0347 0.0159,0.0694 0.0289,0.1031c0.0246,0.0617 0.0549,0.1166 0.1113,0.2168c0.1089,0.2072 0.2371,0.3903 0.3807,0.5445l0.559,0.6004l-0.1349,-0.8086c-0.0058,-0.0347 -0.0145,-0.0684 -0.0231,-0.1022c-0.0058,-0.0202 -0.012,-0.0405 -0.013,-0.0925l0.0019,-0.0732l-0.001,-0.0145c-0.0236,-0.4106 0.0598,-0.8163 0.2472,-1.2066l0.0231,-0.1494z" transform="matrix(4.46204 0 0 4.46204 32.8983 17.5291)" fill="#ce952d"/>
        <path stroke="null" d="m134.61865,61.72113c0.0188,-0.0549 0.0453,-0.1108 0.0708,-0.1667l0.0853,-0.1956l-0.0149,-0.0742c-0.1205,-0.5946 -0.3773,-1.0042 -0.572,-1.2442c-0.052,-0.0626 -0.1041,-0.1234 -0.1518,-0.1715l-0.1817,-0.1831l-0.1749,0.1889c-0.2217,0.24 -0.3783,0.5108 -0.4655,0.8057c-0.053,0.1783 -0.0795,0.3344 -0.0805,0.5021c-0.0029,0.3363 0.0877,0.6997 0.2853,1.1257c0.0361,0.079 0.0718,0.1552 0.1263,0.2515c0.0853,0.1542 0.173,0.3036 0.2689,0.4395c0.0255,0.0376 0.052,0.0704 0.0781,0.1031l0.4689,0.6264l0.0169,-0.7151l-0.001,-0.1079c-0.001,-0.0386 -0.0024,-0.0771 0.001,-0.1542c0.0336,-0.3279 0.1145,-0.6748 0.2408,-1.0304z" transform="matrix(4.46204 0 0 4.46204 32.8983 17.5291)" fill="#ce952d"/>
        <path stroke="null" d="m128.35765,59.24333c0.0226,0.0289 0.0458,0.0569 0.0699,0.0838c0.0366,0.0405 0.0771,0.081 0.1566,0.159l0.0694,0.0694l0.0978,0.0029c0.1296,0.0039 0.2578,0.0077 0.3812,0.0183c0.2202,0.0173 0.4298,0.0434 0.6274,0.08c0.2419,0.0443 0.4713,0.1022 0.7127,0.1822c0.0593,0.0193 0.1195,0.0386 0.1764,0.0588l0.9122,0.3344l-0.6423,-0.7286c-0.0969,-0.1099 -0.2101,-0.2188 -0.3359,-0.3248c-0.0906,-0.0761 -0.1875,-0.1503 -0.2949,-0.2207l-0.0679,-0.0395c-0.1465,-0.0896 -0.3156,-0.1735 -0.505,-0.2496c-0.1764,-0.0694 -0.3735,-0.1282 -0.585,-0.1715c-0.3166,-0.0675 -0.6014,-0.0983 -0.8958,-0.0983l-0.4631,0l0.2414,0.3788c0.0857,0.1348 0.1946,0.2823 0.3449,0.4654z" transform="matrix(4.46204 0 0 4.46204 32.8983 17.5291)" fill="#ce952d"/>
        <path stroke="null" d="m143.38775,71.30743c-0.0376,-0.3421 -0.0357,-0.6804 0.0053,-1.0033l0.0043,-0.0357l-0.0058,-0.0347c-0.0872,-0.5339 -0.2882,-1.01 -0.5961,-1.4167c-0.1513,-0.1995 -0.3224,-0.3807 -0.4944,-0.5243l-0.2501,-0.2082l-0.133,0.2968c-0.0458,0.1021 -0.08,0.2033 -0.1128,0.3045c-0.1354,0.4269 -0.1556,0.8356 -0.0617,1.2509c0.0492,0.2159 0.1344,0.4337 0.2679,0.6843l0.0357,0.0598l0.2091,-0.1311l-0.1643,0.2072c0.0429,0.0752 0.0863,0.1494 0.1349,0.2188l0.0969,0.0829c0.1084,0.0578 0.2096,0.1185 0.305,0.186c0.1272,0.0877 0.2453,0.1783 0.347,0.2718l0.4828,0.4424l-0.0707,-0.6514zm-1.1096,-0.7219l-0.0002,0.0001l0.0002,-0.0001l0,0z" transform="matrix(4.46204 0 0 4.46204 32.8983 17.5291)" fill="#ce952d"/>
        <path stroke="null" d="m127.08075,57.20593c0.1894,0.2573 0.4115,0.4819 0.6602,0.6688l0.0723,0.054l0.0901,-0.0048c0.5151,-0.0318 0.9811,0 1.3878,0.0887l0.4616,0.0569l-0.2072,-0.4501c-0.0304,-0.0665 -0.0607,-0.132 -0.105,-0.2535l-0.0212,-0.0636l-0.0718,-0.107c-0.5797,-0.5031 -1.3782,-0.744 -2.3067,-0.7382l-0.4173,0.0058l0.2062,0.3633c0.0679,0.1186 0.1546,0.2487 0.251,0.3797z" transform="matrix(4.46204 0 0 4.46204 32.8983 17.5291)" fill="#ce952d"/>
        <path stroke="null" d="m124.56145,52.46533l0.2043,0.3701c0.1715,0.3113 0.466,0.7662 0.8919,1.1719l0.0761,0.0713l0.1046,-0.0039c0.5508,-0.026 1.0529,0.0347 1.4962,0.1744l0.0679,0.0212c0.0651,0.0202 0.1301,0.0405 0.1923,0.0655l0.7517,0.3074l-0.4533,-0.6735c-0.1393,-0.2072 -0.3142,-0.4086 -0.5195,-0.6004c-0.0959,-0.0896 -0.2014,-0.1735 -0.3161,-0.2564c-0.0973,-0.0694 -0.1956,-0.1378 -0.307,-0.2005c-0.5161,-0.2891 -1.1102,-0.4375 -1.767,-0.4433l-0.4221,-0.0038z" transform="matrix(4.46204 0 0 4.46204 32.8983 17.5291)" fill="#ce952d"/>
        <path stroke="null" d="m132.09365,60.48273c0.0111,0.0472 0.0275,0.0877 0.0612,0.1696c0.0169,0.053 0.0361,0.1021 0.0641,0.1725l0.318,0.8028l0.1542,-0.8491c0.0482,-0.265 0.1267,-0.4944 0.2409,-0.7016c0.0732,-0.132 0.1638,-0.266 0.2694,-0.3961l0.0617,-0.0761l-0.0072,-0.0973c-0.0125,-0.1648 -0.0294,-0.3209 -0.0545,-0.4636l-0.0328,-0.1571c-0.0482,-0.2265 -0.1118,-0.4366 -0.2024,-0.6631c-0.0145,-0.0366 -0.0289,-0.0732 -0.0438,-0.106l-0.2183,-0.4703l-0.2274,0.4665c-0.0429,0.0877 -0.0757,0.1715 -0.1084,0.2564l-0.0805,0.2005c-0.1253,0.3315 -0.2053,0.6631 -0.2371,0.984l-0.0096,0.134c-0.0149,0.267 -0.001,0.5021 0.0443,0.7315l0.1841,-0.0106c-0.0019,0.0058 -0.0034,0.0125 -0.0053,0.0183l-0.1706,0.0548z" transform="matrix(4.46204 0 0 4.46204 32.8983 17.5291)" fill="#ce952d"/>
        <path stroke="null" d="m135.58045,67.84663l0.0039,0.0145l-0.0925,0.1947c0.1113,0.105 0.2376,0.2149 0.3778,0.3267c0.4308,0.3441 0.8968,0.6004 1.3859,0.7652l0.0732,0.0241l0.0737,-0.0212c0.2732,-0.079 0.544,-0.133 0.8042,-0.159l0.0005,0c0.1561,-0.0173 0.3084,-0.0202 0.4983,-0.0222l0.0651,0c0.0969,0.0039 0.1923,0.0087 0.2853,0.0193l0.6655,0.0713l-0.4597,-0.4867c-0.0617,-0.0655 -0.134,-0.133 -0.2077,-0.2014c-0.1214,-0.1108 -0.2564,-0.2207 -0.4096,-0.3277c-0.1937,-0.133 -0.3677,-0.2332 -0.546,-0.3142c-0.0487,-0.0222 -0.1022,-0.0405 -0.1556,-0.0578l-0.0713,-0.0251c-0.4404,-0.1638 -0.9218,-0.2438 -1.4249,-0.2217c-0.2429,0.0087 -0.4973,0.0395 -0.811,0.0993c-0.0424,0.0058 -0.0843,0.0116 -0.1301,0.0231l-0.4096,0.1475l0.3421,0.3094l0.1425,-0.1581z" transform="matrix(4.46204 0 0 4.46204 32.8983 17.5291)" fill="#ce952d"/>
        <path stroke="null" d="m137.87175,64.03123c-0.0366,-0.0983 -0.0771,-0.1841 -0.1185,-0.2679c-0.0925,-0.1879 -0.1985,-0.3575 -0.3151,-0.504c-0.105,-0.133 -0.2115,-0.2467 -0.3079,-0.3306l-0.2274,-0.2274l-0.1422,0.2824c-0.2886,0.4231 -0.4149,0.876 -0.3744,1.3849c0.0212,0.2111 0.0766,0.4308 0.1648,0.6534c0.0554,0.1407 0.1311,0.2727 0.2327,0.451l0.0347,0.0655c0.0386,0.0626 0.0761,0.1214 0.1176,0.1802l0.4197,0.5561l0.0342,-0.7199l0.0111,-0.0761c0.0067,-0.079 0.0222,-0.1552 0.041,-0.2506c0.0063,-0.0328 0.0106,-0.0655 0.0145,-0.0993c0.0039,-0.0289 0.0067,-0.0588 0.0145,-0.0867c0.066,-0.2429 0.1894,-0.5011 0.3773,-0.7903l0.0675,-0.1041l-0.0441,-0.1166z" transform="matrix(4.46204 0 0 4.46204 32.8983 17.5291)" fill="#ce952d"/>
        <path stroke="null" d="m137.68815,70.29453c0.1282,0.0973 0.2718,0.1927 0.424,0.2862c0.1566,0.0964 0.3277,0.185 0.5064,0.2679c0.1359,0.0617 0.2756,0.1195 0.4231,0.1687l0.1735,-0.0096l0.0824,-0.0318c0.2159,-0.0771 0.4236,-0.1388 0.6226,-0.1831c0.2221,-0.0511 0.4491,-0.081 0.7175,-0.0935l0.8385,-0.0202l-0.5652,-0.4279c-0.1306,-0.0993 -0.2751,-0.1966 -0.4371,-0.2901c-0.0771,-0.0443 -0.1566,-0.0858 -0.24,-0.1272c-0.1455,-0.0713 -0.3007,-0.134 -0.4939,-0.1976c-0.1696,-0.054 -0.3489,-0.0964 -0.5334,-0.1263c-0.1571,-0.0251 -0.3176,-0.0434 -0.4891,-0.0472c-0.2077,0.001 -0.4366,0.0125 -0.6732,0.0501c-0.1831,0.0289 -0.3686,0.0617 -0.5643,0.1214l-0.4346,0.132l0.3474,0.293c0.0438,0.0366 0.094,0.0761 0.1446,0.1156l0.1499,0.1185l0,0.001c-0.0001,0.0001 0.0004,0.0001 0.0009,0.0001z" transform="matrix(4.46204 0 0 4.46204 32.8983 17.5291)" fill="#ce952d"/>
        <path stroke="null" d="m134.71785,66.70653c0.1499,0.0906 0.3074,0.1773 0.4809,0.2535c0.0414,0.0183 0.0858,0.0337 0.1296,0.0491l0.133,0.0492l0.0713,-0.0154c0.1537,-0.0328 0.3084,-0.0665 0.4616,-0.0877c0.2135,-0.026 0.4192,-0.0434 0.6703,-0.0357l0.066,0.0039l0.4799,-0.0761l-0.3498,-0.4173c-0.0434,-0.052 -0.0867,-0.106 -0.1301,-0.16l-0.1185,-0.0935c-0.0554,-0.0337 -0.1128,-0.0675 -0.2077,-0.1185c-0.1393,-0.0742 -0.2896,-0.1426 -0.505,-0.2265c-0.0761,-0.0299 -0.1528,-0.0598 -0.2385,-0.0867c-0.0569,-0.0164 -0.1176,-0.0289 -0.1783,-0.0424l-0.0742,-0.0154c-0.2925,-0.0684 -0.6038,-0.1031 -0.9594,-0.1031c-0.1508,0.0029 -0.306,0.001 -0.4703,0.0202l-0.518,0.0597l0.3749,0.3624c0.2106,0.2034 0.4583,0.4019 0.7575,0.6004c0.0405,0.0269 0.0815,0.0539 0.1248,0.0799z" transform="matrix(4.46204 0 0 4.46204 32.8983 17.5291)" fill="#ce952d"/>
        <path stroke="null" d="m132.80635,64.89273l0.1653,0.0954c0.1128,0.0617 0.2289,0.1234 0.3503,0.1812l0.0747,0.0366l0.1691,-0.0357c0.041,-0.0087 0.0819,-0.0183 0.1185,-0.0241c0.2197,-0.0337 0.4433,-0.053 0.6862,-0.0578c0.0569,0 0.1084,0.001 0.1976,0.0029l1.155,0.0318l-1.2008,-0.5744c-0.0785,-0.0347 -0.1595,-0.0675 -0.2405,-0.0973c-0.0882,-0.0347 -0.1754,-0.0684 -0.2698,-0.0993c-0.1768,-0.0559 -0.3619,-0.106 -0.5599,-0.1465l-0.1605,-0.026c-0.2111,-0.0366 -0.4327,-0.0617 -0.6626,-0.0732l-0.0761,-0.0048c-0.0492,-0.0039 -0.0983,-0.0077 -0.1499,-0.0087l-0.8042,-0.0106l0.8004,0.5532c0.1267,0.0858 0.2621,0.1716 0.4072,0.2573z" transform="matrix(4.46204 0 0 4.46204 32.8983 17.5291)" fill="#ce952d"/>
        <path stroke="null" d="m139.80255,72.13043c0.4043,0.2824 0.9946,0.5638 1.742,0.5638c0.2968,0 0.6182,-0.0443 0.9628,-0.1503l0.0742,-0.0202c0.0598,-0.0164 0.1195,-0.0328 0.1821,-0.0569l0.3286,-0.1272l-0.2313,-0.265c-0.1802,-0.2072 -0.4954,-0.4954 -0.9965,-0.7006c-0.6847,-0.2747 -1.475,-0.2573 -2.3501,0.0482l-0.3927,0.1378l0.3089,0.2785c0.1051,0.0953 0.2337,0.1956 0.372,0.2919z" transform="matrix(4.46204 0 0 4.46204 32.8983 17.5291)" fill="#ce952d"/>
        <path stroke="null" d="m126.89615,55.97143c0.5257,-0.0231 1.0124,0.0289 1.4504,0.1484l0.6558,0.1793l-0.3884,-0.558c-0.0598,-0.0867 -0.1301,-0.1725 -0.2038,-0.2564c-0.12,-0.1359 -0.2327,-0.2438 -0.3542,-0.3373c-0.0877,-0.0684 -0.1846,-0.1253 -0.2997,-0.1918c-0.3845,-0.2226 -0.8447,-0.3537 -1.3671,-0.3913l-0.0858,-0.0077c-0.0723,-0.0067 -0.1494,-0.0173 -0.279,-0.0106l-0.3879,0.027l0.1899,0.3392c0.1263,0.2255 0.3021,0.4539 0.5093,0.6621c0.1397,0.1397 0.2684,0.2506 0.4053,0.3498l0.0694,0.0501l0.0858,-0.0028z" transform="matrix(4.46204 0 0 4.46204 32.8983 17.5291)" fill="#ce952d"/>
        <path stroke="null" d="m128.57985,50.33833l-0.1802,-0.2708l-0.2125,0.2467c-0.227,0.2641 -0.3855,0.584 -0.4838,0.9772l-0.0265,0.0916c-0.0231,0.0761 -0.0496,0.1629 -0.0593,0.2641c-0.0419,0.4395 0.026,0.9242 0.2029,1.4408l0.0766,0.1137l0.2048,-0.1417l-0.1817,0.1667l0.2949,0.319l0.1499,-0.4761c0.1325,-0.3913 0.3619,-0.7594 0.6814,-1.0958l0.0824,-0.0867l-0.0169,-0.1185c-0.0964,-0.664 -0.3427,-1.144 -0.532,-1.4302z" transform="matrix(4.46204 0 0 4.46204 32.8983 17.5291)" fill="#ce952d"/>
        <path stroke="null" d="m129.30745,52.40073c-0.0381,0.0443 -0.0665,0.0916 -0.1248,0.1908c-0.2809,0.3836 -0.4361,0.771 -0.4742,1.1844c-0.0193,0.212 -0.0111,0.4337 0.0251,0.6746c0.0058,0.0395 0.0149,0.0771 0.0246,0.1147l0.1942,-0.001c-0.0019,0.0048 -0.0039,0.0087 -0.0058,0.0125l-0.1773,0.0357c0.0226,0.1147 0.0525,0.2274 0.0853,0.3373l0.2294,0.6765l0.2549,-0.6987c0.1277,-0.3508 0.3017,-0.6505 0.531,-0.9165c0.0487,-0.0569 0.107,-0.1089 0.1648,-0.1619l0.1927,-0.1821l-0.0371,-0.1407c-0.0395,-0.1494 -0.0853,-0.2901 -0.1378,-0.4202c-0.1219,-0.3036 -0.2588,-0.5368 -0.3522,-0.6794l-0.1793,-0.2718l-0.2135,0.2458z" transform="matrix(4.46204 0 0 4.46204 32.8983 17.5291)" fill="#ce952d"/>
        <path stroke="null" d="m130.65615,54.33213l-0.1778,-0.267l-0.2125,0.2409c-0.358,0.4057 -0.5633,0.8731 -0.61,1.3916c-0.0217,0.2409 -0.0048,0.4983 0.053,0.8086c0.0255,0.1378 0.0569,0.2737 0.0969,0.4038c0.0275,0.0916 0.0583,0.1783 0.1103,0.3132l0.3171,0.6794l0.1605,-0.7748l-0.1552,-0.0559l0.0492,-0.0289l0.1205,0.001c0.107,-0.3903 0.2992,-0.7498 0.572,-1.0698l0.1807,-0.1899l-0.016,-0.1146c-0.0048,-0.0366 -0.0116,-0.0694 -0.026,-0.1417c-0.0665,-0.373 -0.1927,-0.7296 -0.386,-1.0678c-0.0256,-0.0453 -0.0516,-0.0906 -0.0767,-0.1281z" transform="matrix(4.46204 0 0 4.46204 32.8983 17.5291)" fill="#ce952d"/>
        <path stroke="null" d="m131.02725,58.88773l0.0891,0.1185c0.0332,0.0328 0.067,0.0646 0.0973,0.0983l0.3156,0.3479l0.1075,-0.4578c0.1041,-0.4443 0.3079,-0.93 0.624,-1.4842l0.0458,-0.081l-0.0183,-0.0906c-0.0246,-0.1185 -0.052,-0.2303 -0.0867,-0.3335c-0.0357,-0.106 -0.0732,-0.2072 -0.1161,-0.2988c-0.0419,-0.0896 -0.0858,-0.1754 -0.1306,-0.2506c-0.0516,-0.0848 -0.1036,-0.1619 -0.1532,-0.2265l-0.1783,-0.2339l-0.199,0.2159c-0.0887,0.0964 -0.1653,0.1956 -0.2347,0.2968c-0.1624,0.238 -0.2756,0.5021 -0.3349,0.7826c-0.0217,0.0993 -0.041,0.1995 -0.0487,0.3055c-0.0048,0.0723 0.001,0.1436 0.0082,0.2149l0.0092,0.1475c0.0019,0.0607 0.0039,0.1205 0.0125,0.1793c0.0323,0.2313 0.0858,0.453 0.1605,0.6621l0.1903,-0.0395c-0.0024,0.0096 -0.0053,0.0193 -0.0077,0.0289l-0.1518,0.0982z" transform="matrix(4.46204 0 0 4.46204 32.8983 17.5291)" fill="#ce952d"/>
        <path stroke="null" d="m127.16555,51.40813l0.0101,-0.0607l-0.0193,-0.0578c-0.1128,-0.3373 -0.3614,-0.9387 -0.7623,-1.1844c-0.1388,-0.0838 -0.464,-0.16 -0.8057,0.0636c-0.2005,0.1349 -0.2935,0.2872 -0.2848,0.4616c0.0212,0.5214 0.7922,1.1941 1.435,1.6663l0.4187,0.2689l-0.0284,-0.5214c-0.0082,-0.1465 -0.0169,-0.292 -0.0029,-0.4395c0.0029,-0.0318 0.0106,-0.0626 0.0178,-0.0935c0.0083,-0.0337 0.016,-0.0684 0.0218,-0.1031z" transform="matrix(4.46204 0 0 4.46204 32.8983 17.5291)" fill="#ce952d"/>
        <path stroke="null" d="m138.02155,66.45693l0.0294,0.0771c0.1026,0.2756 0.2337,0.5339 0.412,0.8018l0.0814,0.0713c0.1156,0.0646 0.2236,0.133 0.3267,0.2034c0.081,0.0549 0.1561,0.1128 0.2299,0.1706l0.3918,0.3094l0.0077,-0.4992c0.0043,-0.2737 0.0549,-0.5532 0.1499,-0.8307l0.0689,-0.2091l-0.0231,-0.08c-0.1455,-0.505 -0.3633,-0.9445 -0.6472,-1.3049c-0.1349,-0.1715 -0.2761,-0.3209 -0.4202,-0.4443l-0.1393,0.1619l-0.0043,-0.0019l0.1142,-0.186c-0.0313,-0.0279 -0.0626,-0.0559 -0.0916,-0.0781l-0.2303,-0.1793l-0.1383,0.2573c-0.0207,0.0386 -0.0299,0.0723 -0.0323,0.0867c-0.1031,0.2101 -0.1658,0.3894 -0.1976,0.5628c-0.0434,0.238 -0.0453,0.4809 -0.0063,0.7199c0.0232,0.1407 0.0719,0.2679 0.1186,0.3913z" transform="matrix(4.46204 0 0 4.46204 32.8983 17.5291)" fill="#ce952d"/>
        <path stroke="null" d="m140.80685,66.94553l-0.0549,-0.0607c-0.0655,-0.0646 -0.1272,-0.1195 -0.2226,-0.2005l-0.256,-0.1917l-0.1205,0.2968c-0.0193,0.0463 -0.0265,0.0887 -0.0357,0.1397c-0.0969,0.2862 -0.1306,0.5937 -0.1007,0.9127l0.0043,0.0877c0.0019,0.0694 0.0043,0.1475 0.0251,0.2361c0.0279,0.1156 0.0747,0.2255 0.1234,0.3354l0.0631,0.1484c0.0405,0.0973 0.0814,0.1937 0.1335,0.2843c0.0294,0.0511 0.0626,0.1002 0.0959,0.1494l0.0516,0.0771c0.08,0.1214 0.1585,0.2409 0.2496,0.3518l0.4236,0.5185l0.014,-0.6698c0.0077,-0.3778 0.0872,-0.7479 0.2559,-1.142l0.0781,-0.1638l-0.0502,-0.1052c-0.0969,-0.2014 -0.1971,-0.3797 -0.2968,-0.5281c-0.108,-0.1619 -0.2256,-0.3094 -0.3807,-0.4761z" transform="matrix(4.46204 0 0 4.46204 32.8983 17.5291)" fill="#ce952d"/>
       </g>
      </g>
      <g stroke="null" fill="url(#svg_143)">
       <path stroke="null" d="m104.49875,17.06273c0.1937,0.0805 0.4033,0.1209 0.6264,0.1209c0.5961,0 1.2866,-0.2877 2.0171,-0.8558c0.2795,-0.3055 6.9399,-7.4859 14.7886,-7.6699l0.2115,-0.0048l0.0275,-0.2101c0.0602,-0.4669 0.1166,-0.9488 0.1677,-1.4114l0.08,-0.6944l-0.2968,0.0212c-6.2243,0.4501 -10.8474,4.1479 -13.0982,5.9482c-0.4457,0.3566 -0.7681,0.6144 -1.0037,0.7638c-0.2087,0.1354 -0.4221,0.2877 -0.6394,0.4438c-0.7903,0.5662 -1.6099,1.1502 -2.3891,0.9666c-0.3118,-0.0718 -0.5821,-0.2506 -0.8269,-0.5469l-0.2034,-0.2462l-0.187,0.2588c-0.3002,0.4163 -0.4308,0.9517 -0.3681,1.5083c0.0853,0.7454 0.5045,1.3612 1.0938,1.6079z" transform="matrix(4.46204 0 0 4.46204 32.8983 17.5291)" fill="url(#svg_143)"/>
       <path stroke="null" d="m124.42995,7.44363l-0.0005,0c4.3971,0.8548 5.1936,4.3985 5.5762,6.1014c0.3797,1.7082 -0.7811,3.7331 -1.2977,4.5243l-0.1146,0.1754l0.1552,0.1417c0.7493,0.6852 0.5344,1.4808 0.3619,2.1207c-0.1065,0.3951 -0.1985,0.7363 -0.0559,0.969c0.1219,0.1985 0.4327,0.3503 0.9228,0.4525c0.6476,0.1354 1.29,0.5296 1.9082,1.1709l0.279,0.2891l0.132,-0.3792c0.4901,-1.409 0.3455,-2.7428 -0.4298,-3.9648c-1.1001,-1.7338 -0.3489,-2.5655 0.2554,-3.2338c0.399,-0.4414 0.7435,-0.823 0.6346,-1.4259c-0.0545,-0.3185 -1.4177,-7.801 -9.1377,-8.0525l-0.2448,-0.0077l-0.0101,0.2448c-0.0266,0.6635 0.3613,0.7382 1.0658,0.8741z" transform="matrix(4.46204 0 0 4.46204 32.8983 17.5291)" fill="url(#svg_143)"/>
       <path stroke="null" d="m102.43105,26.20863c0.213,0.119 0.4361,0.1773 0.6659,0.1773c0.7257,0 1.5208,-0.5831 2.2759,-1.7068c0.198,-0.4631 2.0431,-4.6308 5.7333,-8.4559c3.9677,-4.0723 9.3358,-4.9136 10.3713,-5.0409l0.1773,-0.0217l0.0347,-0.1749c0.081,-0.4077 0.1412,-0.6679 0.1475,-0.692c0.0602,-0.2082 0.1181,-0.4766 0.1821,-0.8442l0.0525,-0.3007l-0.3045,0.0116c-7.4916,0.2843 -13.955,7.1678 -14.2851,7.5268l-0.0289,0.0294c-1.6114,1.4432 -2.5664,3.3037 -3.3374,4.8047c-0.7729,1.5054 -1.3839,2.6946 -2.325,2.7746l-0.2014,0.0169l-0.0231,0.2009c-0.0738,0.6507 0.2983,1.3793 0.8649,1.6949z" transform="matrix(4.46204 0 0 4.46204 32.8983 17.5291)" fill="url(#svg_143)"/>
       <path stroke="null" d="m122.33235,18.37973l0.0453,0.0395c0.0284,0.0207 0.0492,0.0405 0.0646,0.0626l0.0164,0.0467c0.012,0.0328 0.0164,0.067 0.013,0.1065l-0.001,0.0593l0.0005,0.001c-0.1706,1.1242 -0.4655,4.1089 0.1185,5.1363c0.2029,0.3397 0.413,0.7647 0.6182,1.1801c0.6602,1.3357 1.2635,2.4479 1.9631,2.526c0.0959,0.0106 0.1754,0.0737 0.2067,0.1643c0.0704,0.2024 0.132,0.4438 0.1995,0.7132c0.305,1.2056 0.7667,3.0276 3.1245,4.0868l0.307,0.1378l0.0819,-0.7199c0.0284,-0.2655 0.0564,-0.5315 0.0978,-0.7994c0.0063,-0.0405 0.0222,-0.0785 0.0467,-0.1108l3.8969,-5.1642l-0.0684,-0.1364c-0.9705,-1.9497 -2.0431,-3.0589 -3.1866,-3.2974l-0.0005,0c-0.6476,-0.1349 -1.0423,-0.3498 -1.2423,-0.677c-0.2544,-0.4134 -0.1253,-0.8929 -0.001,-1.356c0.1821,-0.6732 0.3547,-1.3092 -0.5238,-1.8576c-0.0583,-0.0361 -0.0993,-0.0954 -0.1118,-0.1643c-0.013,-0.0679 0.0034,-0.1369 0.0477,-0.1961c0.1952,-0.2645 1.8942,-2.6402 1.4784,-4.5079c-0.5749,-2.5611 -1.6008,-5.0269 -5.1888,-5.7241c-0.5522,-0.1075 -0.93,-0.2588 -1.156,-0.4631l-0.3561,-0.3219l-0.0545,0.4771c-0.12,1.0519 -0.2592,2.1212 -0.4578,2.8117c-0.4152,1.4029 -1.2069,7.0017 0.0219,7.9472z" transform="matrix(4.46204 0 0 4.46204 32.8983 17.5291)" fill="url(#svg_143)"/>
       <path stroke="null" d="m113.53915,29.88193c-0.1195,1.3767 -0.2246,2.6831 -0.3253,3.9398c-0.5469,6.8141 -0.9787,12.1962 -3.0845,17.8639c-1.5034,4.041 -4.8553,12.5065 -6.2267,15.9586l-0.1436,0.3624l0.3889,-0.0251c0.7946,-0.0501 2.3086,-0.5551 3.6116,-3.3345l0.0896,0l0,-0.1927c0.3498,-0.771 4.6443,-10.2793 6.1289,-16.3094c1.6427,-6.7115 1.873,-13.4962 1.9718,-16.3932l-0.2462,-0.0193l0.2467,0.0082l0.0376,-1.0486c0.1301,-3.947 0.2241,-6.7992 5.6056,-8.8973l0.1566,-0.0612l0.0005,-0.1682c0.0014,-0.837 0.0718,-1.6331 0.1306,-2.154l0.0453,-0.4038l-0.3792,0.146c-1.8161,0.7002 -7.3417,2.8315 -8.0082,10.7284z" transform="matrix(4.46204 0 0 4.46204 32.8983 17.5291)" fill="url(#svg_143)"/>
       <path stroke="null" d="m121.30835,13.41503c0.0583,-0.506 0.1262,-0.9854 0.1966,-1.4119l0.0554,-0.3368l-0.3373,0.053c-1.3969,0.2207 -6.2296,1.2215 -9.7627,4.8476c-3.7061,3.84 -5.5618,8.1393 -5.6499,8.3532c-0.6563,2.4373 -0.7652,4.5098 -0.8529,6.1752c-0.0959,1.822 -0.1715,3.2608 -0.9237,4.2405l-0.186,0.2424l0.2756,0.1311c0.3648,0.173 0.9628,0.4057 1.5391,0.4057c0.2255,0 0.4477,-0.0357 0.6515,-0.1243c0.5305,-0.2327 0.8751,-0.8062 1.0278,-1.7439c0.0063,-1.5275 0.3017,-6.0518 0.7652,-8.8602c0.4626,-2.8151 3.4883,-6.539 5.4938,-8.1446c2.9197,-2.3149 6.4966,-3.3533 7.5235,-3.6164l0.1643,-0.0419l0.0197,-0.1687z" transform="matrix(4.46204 0 0 4.46204 32.8983 17.5291)" fill="url(#svg_143)"/>
       <path stroke="null" d="m103.22665,68.00763c0.7816,-1.9651 4.7652,-11.9938 6.4402,-16.4944c2.0831,-5.6042 2.4908,-10.6927 3.0551,-17.7357l0,-0.0005c0.1002,-1.2524 0.2053,-2.5607 0.3257,-3.9369c0.6944,-8.2284 6.3395,-10.3891 8.4645,-11.2025l0.2636,-0.1007l-0.1354,-0.2477c-0.1595,-0.293 -0.2776,-0.6799 -0.36,-1.183l-0.1012,-0.2655l-0.3392,0.1094c-1.131,0.36 -3.4839,1.1093 -5.7039,2.8936c-1.4307,1.1449 -3.8824,3.893 -4.2284,9.4341c-0.0704,1.2109 -0.0988,2.3544 -0.1267,3.4603c-0.0916,3.68 -0.1778,7.1558 -1.7304,11.5442c-0.081,0.4607 -2.0783,11.4637 -10.3116,26.9289l-0.1956,0.367l0.4163,-0.0048c0.9267,-0.0116 2.7101,-0.4819 4.267,-3.5658z" transform="matrix(4.46204 0 0 4.46204 32.8983 17.5291)" fill="url(#svg_143)"/>
       <path stroke="null" d="m121.23565,14.10503l-0.3373,0.0954c-1.2471,0.3532 -4.4245,1.3936 -6.99,3.4275c-1.8947,1.5169 -4.878,5.1811 -5.3146,7.8386c-0.4583,2.7736 -0.7527,7.2762 -0.7589,8.7816l-0.0005,0.0014l0.001,0.0843c-0.0149,0.5898 -0.2178,7.164 -1.9694,10.0533l-0.1768,0.292l0.333,0.0771c0.318,0.0723 0.6173,0.1089 0.8934,0.1089c0.7358,0 1.3102,-0.2564 1.6581,-0.7527l0.0308,-0.0598c1.5083,-4.2674 1.5935,-7.6964 1.6841,-11.3264c0.0275,-1.1131 0.0559,-2.2643 0.1267,-3.4786c0.3575,-5.7309 2.9172,-8.5927 4.412,-9.7892c2.2899,-1.8398 4.7007,-2.6084 5.8639,-2.9794l0.4987,-0.1619l-0.0077,-0.186c-0.0222,-0.5055 -0.0125,-1.0698 0.0294,-1.6764l0.0241,-0.3497z" transform="matrix(4.46204 0 0 4.46204 32.8983 17.5291)" fill="url(#svg_143)"/>
       <path stroke="null" d="m122.76365,25.22613l-0.3007,-0.598l-0.1918,0.0487c-1.1122,0.2814 -2.9664,1.5786 -2.8859,7.0999c0.1711,11.0956 -3.9918,24.6197 -4.0337,24.7547l-0.1142,0.3672l0.3816,-0.0492c0.8327,-0.1079 2.3655,-0.7671 3.2806,-3.9725c0.9045,-3.482 3.308,-12.733 3.1476,-20.9542c-0.0694,-3.8901 0.6496,-4.6438 1.3618,-4.8679l0.3021,-0.0949l-0.1662,-0.2698c-0.2704,-0.4386 -0.5138,-0.9219 -0.7812,-1.464z" transform="matrix(4.46204 0 0 4.46204 32.8983 17.5291)" fill="url(#svg_143)"/>
       <path stroke="null" d="m125.09925,28.53463l-0.0308,-0.1205c-0.0255,-0.0993 -0.0496,-0.1942 -0.0747,-0.2838l-0.0347,-0.1234l-0.1214,-0.0424c-0.2183,-0.0766 -0.4342,-0.2221 -0.6592,-0.4457l-0.0858,-0.0848l-0.2207,0.0308c-0.6814,0.0655 -1.4027,0.4684 -1.3314,4.4486c0.1022,5.2172 -0.7956,11.6613 -2.6691,19.1544l-0.239,0.956l3.4054,-3.7625l0.053,-0.0944c2.6228,-8.7488 2.6373,-17.1136 2.6349,-17.6635l0.0116,-0.1055l-0.0294,-0.0607c-0.3191,-0.6586 -0.4796,-1.2923 -0.6087,-1.8026z" transform="matrix(4.46204 0 0 4.46204 32.8983 17.5291)" fill="url(#svg_143)"/>
       <path stroke="null" d="m126.61955,31.66493l-0.4062,-0.4308l-0.0202,0.5917c-0.0848,2.5231 -0.4992,9.1368 -2.5038,16.0386l-0.0935,0.3219l0.3359,-0.0067c0.3445,-0.0067 0.6645,-0.0916 0.9777,-0.2573c0.9927,-0.5272 1.7901,-1.834 2.3067,-3.7779c0.8264,-3.1167 1.1787,-5.1213 1.6345,-10.846l0.0145,-0.1793l-0.1662,-0.0684c-0.8391,-0.346 -1.5387,-0.8124 -2.0794,-1.3858z" transform="matrix(4.46204 0 0 4.46204 32.8983 17.5291)" fill="url(#svg_143)"/>
       <path stroke="null" d="m121.79745,22.58643l-0.0308,-0.3325l-0.3089,0.1267c-4.7667,1.9607 -4.85,4.4934 -4.9763,8.3267l-0.0385,1.0505c-0.0978,2.91 -0.3272,9.7256 -1.9858,16.5046c-1.3059,5.3035 -4.7739,13.2871 -5.8061,15.6078l-0.2144,0.4819l0.5074,-0.1446c1.4042,-0.3999 4.0164,-1.8677 5.7362,-7.2088l0.0169,-0.0511c0.6467,-1.6326 4.3494,-15.1385 4.1947,-25.1638c-0.0824,-5.6408 1.8832,-7.1375 3.0623,-7.5278l0.2607,-0.0863l-0.1138,-0.25c-0.1503,-0.331 -0.2525,-0.7796 -0.3036,-1.3333z" transform="matrix(4.46204 0 0 4.46204 32.8983 17.5291)" fill="url(#svg_143)"/>
      </g>
      <g stroke="null" fill="url(#svg_141)">
       <path stroke="null" d="m120.75325,63.88473c9.2139,9.6606 19.1124,10.7033 22.9404,10.7033c3.7991,0 13.6273,-1.0274 22.805,-10.5453l0.1764,-0.1822l-6.803,-6.2296l0.0096,0.5734c0,0.0193 0.001,0.0636 -0.0067,0.0848c-0.1465,0.4057 -0.4154,0.8587 -0.7382,1.2423l-0.08,0.0954l0.0289,0.1214c0.0077,0.0299 0.0067,0.0607 -0.001,0.0983l-0.0299,0.1465l0.1156,0.0944c1.381,1.1305 2.7765,2.0374 4.2646,2.7708l0.1108,0.0549c0.6949,0.3421 1.0312,0.5214 1.0726,0.8577c0.0279,0.2255 -0.0916,0.4327 -0.4028,0.6968l-0.1619,0.1436c-0.4385,0.3951 -0.984,0.8857 -1.7492,0.8857c-0.266,0 -0.5513,-0.0598 -0.8481,-0.1783c-0.5908,-0.2352 -2.2128,-1.224 -3.9706,-2.6869l-0.267,-0.1176l-0.2679,0.4298l0.1648,0.1426c1.0351,0.8934 2.0682,1.6364 3.1534,2.2686l0.133,0.081c0.6129,0.3701 0.9078,0.5628 0.9262,0.8876c0.0135,0.2197 -0.1128,0.4163 -0.4192,0.6544l-0.1831,0.1407c-0.4183,0.3248 -0.9387,0.7286 -1.6143,0.7286c-0.2901,0 -0.5985,-0.0752 -0.9146,-0.2236c-0.4318,-0.2033 -1.674,-1.0322 -3.1669,-2.393l-0.1388,-0.1272l-0.584,0.3508l0.2332,0.2245c0.8809,0.8462 1.8176,1.6066 2.7843,2.2571l0.105,0.0713c0.6023,0.4086 0.8924,0.6197 0.8943,0.9522c0.0019,0.3171 -0.318,0.5387 -0.453,0.6332l-0.185,0.1263c-0.4395,0.3045 -0.9377,0.6486 -1.5613,0.6486c-0.3238,0 -0.6467,-0.0925 -0.9849,-0.2814c-0.3412,-0.1937 -1.2779,-0.9069 -2.4604,-2.0759l-0.2207,-0.1503l-0.3624,0.4086l0.1446,0.1648c0.372,0.424 0.7642,0.8548 1.1825,1.2933c0.1523,0.1619 0.293,0.2939 0.4125,0.4057c0.3065,0.2862 0.479,0.4607 0.451,0.7112c-0.0222,0.1927 -0.1648,0.3527 -0.478,0.5339c-0.5407,0.3248 -1.3608,0.7112 -2.1935,0.7112c-0.4501,0 -0.8568,-0.1156 -1.2076,-0.345c-0.0983,-0.0636 -0.3286,-0.2467 -0.7614,-0.7575l-0.1378,-0.1629l-0.1812,0.1137c-0.2101,0.132 -0.4106,0.2409 -0.6129,0.3354l-0.2438,0.1128l0.134,0.2332c0.1542,0.2689 0.3363,0.6708 0.1426,1.0466c-0.187,0.3614 -0.6631,0.5628 -1.4514,0.6168c-1.3329,0.0694 -6.1718,0.0684 -7.5003,0.001c-0.7927,-0.0549 -1.2688,-0.2564 -1.4552,-0.6187c-0.1479,-0.2853 -0.1026,-0.6178 0.1426,-1.0457l0.134,-0.2332l-0.2443,-0.1128c-0.2029,-0.0944 -0.4028,-0.2033 -0.6125,-0.3354l-0.1807,-0.1137l-0.1383,0.1629c-0.4332,0.5108 -0.6631,0.6939 -0.7628,0.7585c-0.3503,0.2284 -0.7561,0.3441 -1.2066,0.3441c-0.8322,0 -1.6523,-0.3865 -2.1968,-0.7122c-0.3103,-0.1802 -0.452,-0.3402 -0.4742,-0.532c-0.0284,-0.2515 0.1441,-0.426 0.452,-0.7141c0.1181,-0.1099 0.2588,-0.2419 0.4091,-0.4019c0.4202,-0.4404 0.8124,-0.8712 1.1849,-1.2953l0.1446,-0.1648l-0.3956,-0.4443l-0.1879,0.186c-1.1825,1.169 -2.1197,1.8822 -2.4595,2.0749c-0.3397,0.1898 -0.6621,0.2824 -0.9859,0.2824c-0.6235,0 -1.1218,-0.3441 -1.5666,-0.6515l-0.1788,-0.1224c-0.1364,-0.0954 -0.4558,-0.3171 -0.4539,-0.6341c0.0019,-0.3325 0.2915,-0.5435 0.8944,-0.9522l0.1041,-0.0713c0.9642,-0.6486 1.9015,-1.408 2.7857,-2.2571l0.2332,-0.2245l-0.5864,-0.3487l-0.1378,0.1253c-1.4933,1.3608 -2.7341,2.1906 -3.1654,2.393c-0.3171,0.1484 -0.625,0.2236 -0.9151,0.2236c-0.6756,0 -1.196,-0.4038 -1.6152,-0.7295l-0.1812,-0.1388c-0.3079,-0.239 -0.4337,-0.4356 -0.4207,-0.6553c0.0188,-0.3248 0.3137,-0.5175 0.9291,-0.8886l0.1267,-0.0781c1.0919,-0.6361 2.125,-1.3791 3.1577,-2.2706l0.1547,-0.159l-0.3055,-0.478l-0.2193,0.1821c-1.7598,1.463 -3.3813,2.4518 -3.9706,2.6869c-0.2968,0.1185 -0.5826,0.1783 -0.8486,0.1783c-0.7657,0 -1.3112,-0.4905 -1.7516,-0.8876l-0.1638,-0.1446c-0.3074,-0.2612 -0.4265,-0.4684 -0.3985,-0.6949c0.0414,-0.3354 0.3778,-0.5146 1.076,-0.8587l0.1065,-0.052c1.4871,-0.7334 2.8826,-1.6393 4.2655,-2.7717l0.1156,-0.0944l-0.0299,-0.1465c-0.0082,-0.0376 -0.0082,-0.0684 -0.001,-0.0983l0.0289,-0.1214l-0.08,-0.0954c-0.3224,-0.3836 -0.5917,-0.8365 -0.7377,-1.2413c-0.0072,-0.0202 -0.0101,-0.0491 -0.0082,-0.0916l-0.0318,-0.1359l-0.2795,-0.2901l-6.3125,5.9318l0.1721,0.1803z" transform="matrix(4.46204 0 0 4.46204 32.8983 17.5291)" fill="url(#svg_141)"/>
       <path stroke="null" d="m155.33375,53.93213c-0.0183,0.0472 -0.0655,0.1301 -0.1658,0.1542c-0.0173,0.0039 -0.3556,0.0781 -0.8192,0.079l-0.4645,0.001l0.2602,0.3845c0.2168,0.32 0.451,0.6496 0.7055,0.9936l0.1667,0.2245l0.2024,-0.1937c0.0357,-0.0347 0.0646,-0.0598 0.0675,-0.0655l0.2005,-0.0732l0.028,-0.1253c0.08,-0.3633 0.2139,-0.7151 0.398,-1.0437l0.0954,-0.1706l-0.5426,-0.4963l-0.1321,0.3315z" transform="matrix(4.46204 0 0 4.46204 32.8983 17.5291)" fill="url(#svg_141)"/>
       <path stroke="null" d="m130.97135,53.94083l0.1079,0.1715c0.2376,0.3787 0.399,0.771 0.4934,1.1989l0.0275,0.1243l0.1947,0.0723c0.0169,0.0145 0.0424,0.0376 0.0742,0.0684l0.2019,0.1918l0.1662,-0.2236c0.2549,-0.3441 0.4891,-0.6746 0.7055,-0.9946l0.2597,-0.3836l-0.4636,-0.001c-0.4737,-0.001 -0.8163,-0.079 -0.8187,-0.079c-0.1205,-0.0289 -0.1976,-0.1417 -0.1836,-0.2689l0.0728,-0.665l-0.8379,0.7885z" transform="matrix(4.46204 0 0 4.46204 32.8983 17.5291)" fill="url(#svg_141)"/>
      </g>
      <g stroke="null" fill="#f4e0b6">
       <path stroke="null" d="m153.06515,70.06613c-0.4144,-0.4346 -0.8047,-0.8606 -1.1738,-1.2818l-0.1542,-0.1764l-0.1841,0.1455c-0.2294,0.1821 -0.5002,0.3575 -0.8057,0.5233l-0.1754,0.1494l0.0944,0.2091c0.0164,0.0742 -0.0029,0.1523 -0.052,0.2101c-0.1407,0.1667 -0.3238,0.3498 -0.5301,0.5301l-0.1841,0.1619l0.16,0.185c0.267,0.3103 0.4742,0.5146 0.6158,0.6062c0.291,0.1908 0.6158,0.266 0.9445,0.266c0.7199,0 1.4601,-0.3576 1.9207,-0.6303l0.239,-0.2053l-0.2814,-0.266l0,-0.001c-0.1262,-0.1174 -0.2746,-0.2562 -0.4336,-0.4258z" transform="matrix(4.46204 0 0 4.46204 32.8983 17.5291)" fill="#f4e0b6"/>
       <path stroke="null" d="m158.40525,67.17683c0.266,0.1243 0.4992,0.1773 0.7103,0.1773c0.5021,0 0.8847,-0.2968 1.3078,-0.6245l0.4636,-0.3865l-0.2554,-0.1793c-0.1262,-0.0877 -0.3132,-0.2024 -0.4857,-0.3065l-0.1291,-0.0781c-1.1073,-0.6447 -2.1617,-1.4051 -3.2247,-2.3236l-0.1629,-0.1407l-0.1609,0.1426c-0.0694,0.0607 -0.1455,0.1214 -0.2236,0.1812l-0.1291,0.0993l0.0405,0.1571c0.0222,0.0877 0.0019,0.1754 -0.0549,0.2342c-0.0366,0.0376 -0.2535,0.2467 -0.5696,0.5011l-0.2255,0.1812l0.2159,0.1937c1.3856,1.2463 2.5045,1.9932 2.8833,2.1715z" transform="matrix(4.46204 0 0 4.46204 32.8983 17.5291)" fill="#f4e0b6"/>
       <path stroke="null" d="m126.94245,65.85753c-0.1725,0.1041 -0.36,0.2188 -0.4862,0.3065l-0.2453,0.2178l0.4525,0.3469c0.4236,0.3286 0.8062,0.6255 1.3088,0.6255c0.2115,0 0.4443,-0.053 0.7103,-0.1773c0.3797,-0.1793 1.4981,-0.9262 2.8835,-2.1713l0.2154,-0.1927l-0.2255,-0.1821c-0.3547,-0.2862 -0.5686,-0.5002 -0.5686,-0.5002c-0.0569,-0.0598 -0.0776,-0.1475 -0.0554,-0.2352l0.0405,-0.1571l-0.1291,-0.0993c-0.0785,-0.0598 -0.1537,-0.1205 -0.2226,-0.1812l-0.1619,-0.1426l-0.1629,0.1407c-1.0625,0.9184 -2.1173,1.6779 -3.2285,2.3255l-0.125,0.0761z" transform="matrix(4.46204 0 0 4.46204 32.8983 17.5291)" fill="#f4e0b6"/>
       <path stroke="null" d="m123.18335,63.65433l-0.2467,0.2101l0.4265,0.3797c0.4289,0.3865 0.8399,0.7565 1.4254,0.7565c0.1976,0 0.4149,-0.0424 0.6597,-0.1397c0.5619,-0.2245 2.2055,-1.2384 3.9489,-2.7033l0.2231,-0.187l-0.2212,-0.1889c-0.3653,-0.3132 -0.6929,-0.6881 -0.9743,-1.117l-0.1494,-0.2265l-0.2115,0.1696c-1.3357,1.0746 -2.7471,1.9805 -4.1947,2.6937l-0.107,0.053l0.1094,0.2207l-0.1238,-0.214c-0.2035,0.1004 -0.4203,0.2074 -0.5644,0.2931z" transform="matrix(4.46204 0 0 4.46204 32.8983 17.5291)" fill="#f4e0b6"/>
       <path stroke="null" d="m155.38195,69.65653c0.2756,0.1552 0.5204,0.2188 0.7469,0.2188c0.4645,0 0.8529,-0.2679 1.2789,-0.5638l0.4867,-0.3508l-0.2515,-0.1985c-0.1243,-0.0973 -0.3122,-0.2255 -0.4905,-0.3469l-0.1041,-0.0704c-0.9705,-0.6525 -1.8899,-1.3984 -2.8103,-2.2792l-0.186,-0.1773l-0.1696,0.1927c-0.3123,0.3547 -0.6862,0.6775 -1.0823,0.9348l-0.2554,0.1658l0.214,0.2149c1.2316,1.2412 2.3148,2.0836 2.6232,2.2599z" transform="matrix(4.46204 0 0 4.46204 32.8983 17.5291)" fill="#f4e0b6"/>
       <path stroke="null" d="m161.63955,64.86093c0.2448,0.0973 0.4626,0.1397 0.6602,0.1397c0.585,0 0.9955,-0.3701 1.4234,-0.7556l0.478,-0.4154l-0.2968,-0.1754c-0.1446,-0.0858 -0.3614,-0.1927 -0.5782,-0.2997l-0.1079,-0.054c-1.4475,-0.7132 -2.8585,-1.6191 -4.1952,-2.6927l-0.2111,-0.1696l-0.1494,0.2274c-0.2814,0.4279 -0.6091,0.8038 -0.9734,1.1151l-0.2217,0.1899l0.2226,0.187c1.7435,1.4649 3.3876,2.4788 3.9495,2.7033z" transform="matrix(4.46204 0 0 4.46204 32.8983 17.5291)" fill="#f4e0b6"/>
       <path stroke="null" d="m133.58935,70.49213l-0.3257,0.3045l0.2833,0.1677c0.4607,0.2737 1.2008,0.6303 1.9203,0.6303c0.3286,0 0.6525,-0.0742 0.9435,-0.265c0.1422,-0.0916 0.3494,-0.2959 0.6163,-0.6072l0.159,-0.185l-0.1831,-0.1609c-0.2062,-0.1812 -0.3894,-0.3653 -0.5301,-0.531c-0.0482,-0.0578 -0.0679,-0.1359 -0.0535,-0.1966l0.1195,-0.2641l-0.199,-0.1079c-0.306,-0.1658 -0.5768,-0.3421 -0.8042,-0.5223l-0.1841,-0.1465l-0.1552,0.1764c-0.3691,0.4212 -0.7594,0.8471 -1.1753,1.2837c-0.1575,0.1675 -0.3059,0.3063 -0.4317,0.4239z" transform="matrix(4.46204 0 0 4.46204 32.8983 17.5291)" fill="#f4e0b6"/>
       <path stroke="null" d="m129.92185,68.42393c-0.1648,0.1128 -0.3527,0.2409 -0.4766,0.3383l-0.2284,0.2342l0.4616,0.3151c0.4269,0.2949 0.8148,0.5628 1.2803,0.5628c0.2265,0 0.4718,-0.0636 0.7488,-0.2188c0.306,-0.1744 1.3883,-1.0167 2.6209,-2.259l0.214,-0.2149l-0.2544,-0.1658c-0.3961,-0.2573 -0.77,-0.5802 -1.0823,-0.9348l-0.1696,-0.1927l-0.186,0.1773c-0.9189,0.8789 -1.8383,1.6249 -2.8112,2.2792l-0.1171,0.0791z" transform="matrix(4.46204 0 0 4.46204 32.8983 17.5291)" fill="#f4e0b6"/>
       <g stroke="null">
        <path stroke="null" d="m141.37925,62.20583c-0.3229,-0.2207 -0.6419,-0.4453 -0.956,-0.6727l-0.24,-0.1744l-0.1277,0.2679c-0.3474,0.7267 -0.7729,1.5044 -1.2654,2.3139l-0.1132,0.186l0.1706,0.1359c0.28,0.2217 0.6814,0.6178 1.0047,1.2442l0.2289,0.4433l0.2135,-0.4501c0.493,-1.0418 0.8905,-2.0566 1.1815,-3.0194l0.0525,-0.1735l-0.1494,-0.1011z" transform="matrix(4.46204 0 0 4.46204 32.8983 17.5291)" fill="url(#svg_140)"/>
        <path stroke="null" d="m143.97415,60.97223l-0.3286,0.3277c-0.0689,0.0357 -0.1465,0.0405 -0.2342,-0.0096l-0.3161,-0.1841l-0.0525,0.3614c-0.2178,1.5111 -0.6476,3.6853 -1.4577,5.4596l-0.0569,0.1253l0.0761,0.1137c0.0506,0.0761 0.1002,0.1552 0.1489,0.24l0.0732,0.1272l0.147,-0.0039c0.0482,-0.001 0.0838,0.0048 0.1128,0.0193c0.0067,0.0039 0.7151,0.3913 1.2514,1.2105l0.2062,0.3161l0.2067,-0.3161c0.5426,-0.8298 1.2442,-1.2066 1.2509,-1.2105c0.0289,-0.0145 0.0684,-0.0173 0.1137,-0.0193l0.1475,0.0039l0.0723,-0.1282c0.0482,-0.0848 0.0983,-0.1638 0.1484,-0.24l0.0761,-0.1137l-0.0569,-0.1243c-0.8115,-1.7781 -1.2413,-3.9542 -1.4591,-5.4663l-0.0692,-0.4887z" transform="matrix(4.46204 0 0 4.46204 32.8983 17.5291)" fill="url(#svg_140)"/>
        <path stroke="null" d="m153.56725,55.14843c-0.2592,0.32 -0.5281,0.6361 -0.8018,0.9464l-0.1137,0.1291l0.0819,0.1513c0.2034,0.3739 0.4404,0.7594 0.7479,1.2143l0.2178,0.3229l0.1985,-0.3344c0.1812,-0.3045 0.3402,-0.4607 0.3392,-0.4616l0.1349,-0.081l0.027,-0.0867c0.0675,-0.2188 0.1513,-0.4221 0.2506,-0.6072l0.0752,-0.1388l-0.0954,-0.1272c-0.2361,-0.3113 -0.4626,-0.6168 -0.6679,-0.9117l-0.187,-0.2689l-0.2072,0.2535z" transform="matrix(4.46204 0 0 4.46204 32.8983 17.5291)" fill="url(#svg_140)"/>
        <path stroke="null" d="m149.30745,59.38503l-0.2352,0.2053c-0.292,0.2544 -0.5888,0.5031 -0.8895,0.7479l-0.1407,0.1137l0.0665,0.1687c0.2592,0.6573 0.5811,1.3223 0.9859,2.0325l0.16,0.2804l0.2284,-0.2284c0.3392,-0.3392 0.6322,-0.4722 0.6361,-0.4742c0.0646,-0.027 0.1436,-0.0019 0.1985,0.0251l0.239,0.1166l0.2024,-0.4963l-0.0713,-0.1099c-0.4433,-0.6804 -0.8587,-1.3888 -1.2346,-2.1048l-0.1455,-0.2766z" transform="matrix(4.46204 0 0 4.46204 32.8983 17.5291)" fill="url(#svg_140)"/>
        <path stroke="null" d="m151.60405,57.21653l-0.2226,0.2371c-0.2698,0.2882 -0.5445,0.5744 -0.824,0.8539l-0.1224,0.1224l0.0732,0.1571c0.2997,0.637 0.664,1.2789 1.1141,1.9622l0.2496,0.3788l0.1821,-0.4154c0.2303,-0.5243 0.5387,-0.8809 0.7575,-1.0871l0.1561,-0.1475l-0.1243,-0.1744c-0.4202,-0.5898 -0.7797,-1.1314 -1.0707,-1.6095l-0.1686,-0.2776z" transform="matrix(4.46204 0 0 4.46204 32.8983 17.5291)" fill="url(#svg_140)"/>
        <path stroke="null" d="m146.90485,61.35873l-0.24,0.1744c-0.3142,0.2274 -0.6332,0.452 -0.956,0.6727l-0.1503,0.1012l0.053,0.1735c0.2939,0.9695 0.692,1.9853 1.1825,3.0194l0.214,0.4501l0.2284,-0.4433c0.3219,-0.6264 0.7238,-1.0225 1.0042,-1.2442l0.1706,-0.1359l-0.1128,-0.186c-0.4963,-0.8153 -0.9223,-1.594 -1.2664,-2.3139l-0.1272,-0.268z" transform="matrix(4.46204 0 0 4.46204 32.8983 17.5291)" fill="url(#svg_140)"/>
        <path stroke="null" d="m133.51995,55.14843l-0.2067,-0.2535l-0.187,0.2689c-0.2053,0.2949 -0.4313,0.6004 -0.6679,0.9117l-0.0959,0.1263l0.0752,0.1397c0.1002,0.186 0.185,0.3903 0.2515,0.6062l0.0684,0.107l0.0776,0.0491c0.0014,0.001 0.1648,0.1561 0.3542,0.4742l0.199,0.3344l0.2173,-0.3229c0.3089,-0.4568 0.5464,-0.8433 0.7483,-1.2143l0.0824,-0.1513l-0.1142,-0.1291c-0.2736,-0.3104 -0.542,-0.6265 -0.8022,-0.9464z" transform="matrix(4.46204 0 0 4.46204 32.8983 17.5291)" fill="url(#svg_140)"/>
        <path stroke="null" d="m136.65255,58.42993l-0.1224,-0.1224c-0.2795,-0.2795 -0.5542,-0.5657 -0.824,-0.8539l-0.2221,-0.2371l-0.1687,0.2776c-0.291,0.478 -0.6515,1.0196 -1.0707,1.6095l-0.1243,0.1744l0.1556,0.1475c0.2183,0.2062 0.5267,0.5619 0.757,1.0871l0.1826,0.4154l0.2496,-0.3788c0.4496,-0.6833 0.8144,-1.3251 1.1136,-1.9622l0.0738,-0.1571z" transform="matrix(4.46204 0 0 4.46204 32.8983 17.5291)" fill="url(#svg_140)"/>
        <path stroke="null" d="m138.01585,59.59023l-0.2356,-0.2053l-0.145,0.2766c-0.3768,0.7161 -0.7917,1.4244 -1.2341,2.1058l-0.0713,0.1089l0.1985,0.4963l0.2414,-0.1166c0.081,-0.0385 0.1489,-0.0482 0.2005,-0.0241c0.0029,0.001 0.2954,0.134 0.6346,0.4732l0.2289,0.2294l0.16,-0.2814c0.4038,-0.7112 0.7262,-1.3753 0.9854,-2.0325l0.0665,-0.1677l-0.1402,-0.1147c-0.3013,-0.2448 -0.5981,-0.4934 -0.8896,-0.7479z" transform="matrix(4.46204 0 0 4.46204 32.8983 17.5291)" fill="url(#svg_140)"/>
       </g>
      </g>
      <g stroke="null">
       <g stroke="null" fill="#4d4759">
        <path stroke="null" d="m131.13805,47.33923l-0.1802,-0.4298l-0.5946,0.2679l-0.0617,0.0395c-0.2429,0.213 -0.4472,0.4877 -0.6081,0.8153l-0.1677,0.3421l0.3812,0.0135c0.041,0.001 0.0819,0.0019 0.1224,0.0019c0.3248,0 0.6346,-0.0443 0.9242,-0.133c0.0805,-0.0251 0.1475,-0.0511 0.2144,-0.0781l-0.0448,-0.2477l0.0901,0.2294l0.2424,-0.0944l-0.1079,-0.2371c-0.0738,-0.1619 -0.1417,-0.3257 -0.2097,-0.4895z" transform="matrix(4.46204 0 0 4.46204 32.8983 17.5291)" fill="#4d4759"/>
        <path stroke="null" d="m128.70505,46.73203l0.3816,0.0135c0.0414,0.001 0.0829,0.0019 0.1238,0.0019c0.3262,0 0.6361,-0.0443 0.9218,-0.132c0.1364,-0.0424 0.2486,-0.0887 0.359,-0.1349l-0.08,-0.2341l0.0949,0.2274l0.2202,-0.0916l-0.0843,-0.2236c-0.0516,-0.1359 -0.0964,-0.2747 -0.1417,-0.4144c-0.0328,-0.1002 -0.0651,-0.2014 -0.1002,-0.3007l-0.0887,-0.2544l-0.7681,0.3469l-0.0607,0.0385c-0.2419,0.2111 -0.4472,0.4857 -0.6091,0.8153l-0.1685,0.3422z" transform="matrix(4.46204 0 0 4.46204 32.8983 17.5291)" fill="#4d4759"/>
        <path stroke="null" d="m131.84595,48.85223l-0.1065,-0.2101l-0.5542,0.2486l-0.0612,0.0395c-0.2424,0.213 -0.4472,0.4867 -0.6091,0.8163l-0.1691,0.3432l0.3826,0.0125c0.0352,0.001 0.0728,0.0019 0.1128,0.0019c0.2515,0 0.5888,-0.027 0.931,-0.132c0.093,-0.0289 0.1706,-0.0598 0.2477,-0.0916l-0.0467,-0.2463l0.0001,0c0,-0.0001 -0.0001,-0.0001 -0.0001,-0.0001l-0.0001,-0.0004l0.0916,0.2294l0.2568,-0.1031l-0.1311,-0.2429c-0.1185,-0.2206 -0.2318,-0.4423 -0.3445,-0.6649z" transform="matrix(4.46204 0 0 4.46204 32.8983 17.5291)" fill="#4d4759"/>
        <path stroke="null" d="m133.90885,52.31783l-0.1166,-0.1687l-0.69,0.3113l-0.0612,0.0386c-0.2424,0.213 -0.4472,0.4867 -0.6091,0.8163l-0.1691,0.3431l0.3826,0.0125c0.0347,0.001 0.0723,0.0019 0.1113,0.0019c0.2515,0 0.5893,-0.027 0.9329,-0.132c0.1985,-0.0617 0.3831,-0.1349 0.5811,-0.2313l0.2665,-0.1291l-0.2539,-0.345c-0.1268,-0.1716 -0.2531,-0.3431 -0.3745,-0.5176z" transform="matrix(4.46204 0 0 4.46204 32.8983 17.5291)" fill="#4d4759"/>
        <path stroke="null" d="m134.95015,53.74233l-0.1282,-0.1638l-0.1831,0.0993c-0.2506,0.1359 -0.5142,0.2458 -0.8476,0.3431l-0.4472,0.1108l0.2356,0.2978c0.4563,0.5763 0.9064,1.1122 1.3367,1.5902c0.0612,0.0684 0.0747,0.1715 0.0347,0.2631l-0.318,0.7276l0.6741,-0.4192c0.0352,-0.0212 0.0713,-0.0347 0.1094,-0.0376c0.0858,-0.0164 0.1556,0.0212 0.2082,0.08c0.4799,0.5349 0.983,1.0611 1.4962,1.5642c0.0732,0.0723 0.094,0.1802 0.0525,0.2756l0.1113,0.081l-0.1407,-0.0212l-0.5898,1.2326l0.984,-0.9493c0.0434,-0.0414 0.0824,-0.0655 0.1176,-0.0723c0.0771,-0.0164 0.1561,0.0067 0.2135,0.0578c0.5132,0.4636 1.0592,0.9262 1.6225,1.3762c0.0824,0.0665 0.1137,0.1783 0.0569,0.3286l-0.291,0.8057l0.6751,-0.5272c0.0323,-0.026 0.0617,-0.0414 0.0877,-0.0482c0.0718,-0.0183 0.1503,-0.0048 0.2111,0.0414c0.5619,0.4212 1.1406,0.8307 1.7203,1.2182c0.0087,0.0077 0.0284,0.0405 0.0559,0.0867l0.3465,0.5744l0.1079,-0.6621c0.0641,-0.3922 0.1142,-0.7488 0.1566,-1.0765l0.0193,-0.1513l-0.1258,-0.0848c-2.9868,-2.0248 -5.5311,-4.3609 -7.5622,-6.9408z" transform="matrix(4.46204 0 0 4.46204 32.8983 17.5291)" fill="#4d4759"/>
        <path stroke="null" d="m132.80145,50.59563l-0.1128,-0.1889l-0.6144,0.2776l-0.0607,0.0386c-0.2414,0.2111 -0.4462,0.4857 -0.6086,0.8163l-0.1682,0.3431l0.3821,0.0125c0.0352,0.001 0.0728,0.0019 0.1123,0.0019c0.252,0 0.5903,-0.027 0.9315,-0.133c0.1638,-0.0511 0.3002,-0.106 0.4293,-0.1629l0.2631,-0.1147l-0.1542,-0.2429c-0.1353,-0.2139 -0.2697,-0.4298 -0.3994,-0.6476z" transform="matrix(4.46204 0 0 4.46204 32.8983 17.5291)" fill="#4d4759"/>
       </g>
       <g stroke="null" fill="#4d4759">
        <path stroke="null" d="m152.26035,53.57363l-0.1291,0.1648c-2.0306,2.5761 -4.5739,4.9083 -7.5577,6.9312l-0.1253,0.0848l0.0193,0.1503c0.0414,0.3315 0.0925,0.6929 0.1571,1.091l0.1224,0.6496l0.346,-0.584c0.0135,-0.0231 0.0337,-0.0569 0.0434,-0.0646c0.5792,-0.3874 1.1575,-0.797 1.7203,-1.2191c0.0588,-0.0434 0.1378,-0.0607 0.2091,-0.0405c0.028,0.0067 0.0569,0.0222 0.0887,0.0482l0.6563,0.478l-0.292,-0.8066c-0.0366,-0.1002 -0.0058,-0.212 0.0771,-0.2785c0.5628,-0.4501 1.1093,-0.9127 1.621,-1.3753c0.0588,-0.052 0.1359,-0.0704 0.213,-0.0598c0.0376,0.0077 0.0761,0.0308 0.1195,0.0732l0.8654,0.8057l-0.5002,-1.1488c-0.0414,-0.0954 -0.0212,-0.2033 0.052,-0.2756c0.5127,-0.5031 1.0167,-1.0293 1.4967,-1.5642c0.054,-0.0607 0.1282,-0.0877 0.2101,-0.08c0.0357,0.0029 0.0723,0.0164 0.107,0.0376l0.6737,0.4192l-0.3171,-0.7276c-0.0414,-0.0925 -0.0279,-0.1937 0.0337,-0.2631c0.4327,-0.4799 0.8818,-1.0158 1.3367,-1.5902l0.2342,-0.2968l-0.4886,-0.1205c-0.2949,-0.0906 -0.5599,-0.2014 -0.8095,-0.3383l-0.1832,-0.1001z" transform="matrix(4.46204 0 0 4.46204 32.8983 17.5291)" fill="#4d4759"/>
        <path stroke="null" d="m153.17205,52.31503c-0.1166,0.1677 -0.239,0.3335 -0.3604,0.4983l-0.266,0.3633l0.2641,0.1301c0.1985,0.0973 0.3855,0.1715 0.5888,0.2342c0.3431,0.105 0.6814,0.132 0.9319,0.132c0.0395,0 0.0771,-0.001 0.1118,-0.0019l0.3826,-0.0125l-0.1687,-0.3431c-0.1619,-0.3296 -0.3672,-0.6033 -0.6091,-0.8163l-0.7585,-0.3527l-0.1165,0.1686z" transform="matrix(4.46204 0 0 4.46204 32.8983 17.5291)" fill="#4d4759"/>
        <path stroke="null" d="m154.28035,50.59373c-0.1301,0.2178 -0.265,0.4327 -0.4,0.6476l-0.1542,0.2438l0.2641,0.1147c0.1301,0.0559 0.2679,0.1128 0.4337,0.1629c0.3421,0.107 0.6804,0.134 0.9319,0.134c0.0405,0 0.0781,-0.001 0.1128,-0.0019l0.3816,-0.0125l-0.1677,-0.3431c-0.1619,-0.3306 -0.3672,-0.6052 -0.6091,-0.8163l-0.6804,-0.318l-0.1127,0.1888z" transform="matrix(4.46204 0 0 4.46204 32.8983 17.5291)" fill="#4d4759"/>
        <path stroke="null" d="m155.23735,48.85033c-0.1128,0.2226 -0.2265,0.4443 -0.345,0.665l-0.0935,0.2573l0.2554,0.1031c0.081,0.0328 0.1619,0.0655 0.2602,0.0964c0.3431,0.105 0.6804,0.132 0.9319,0.132c0.0405,0 0.0781,-0.001 0.1128,-0.0019l0.3826,-0.0125l-0.1687,-0.3431c-0.1619,-0.3296 -0.3672,-0.6033 -0.6091,-0.8163l-0.6206,-0.2891l-0.106,0.2091z" transform="matrix(4.46204 0 0 4.46204 32.8983 17.5291)" fill="#4d4759"/>
        <path stroke="null" d="m156.78615,47.21683l-0.6602,-0.3074l-0.1812,0.4308c-0.0684,0.1629 -0.1359,0.3257 -0.2091,0.4867l-0.0617,0.2525l0.239,0.0964c0.0704,0.0289 0.1388,0.0559 0.2226,0.0819c0.2882,0.0877 0.5975,0.132 0.9223,0.132c0.0414,0 0.0819,-0.001 0.1234,-0.0019l0.3807,-0.0135l-0.1677,-0.3421c-0.1609,-0.3278 -0.3653,-0.6025 -0.6081,-0.8154z" transform="matrix(4.46204 0 0 4.46204 32.8983 17.5291)" fill="#4d4759"/>
        <path stroke="null" d="m157.60435,45.57453l-0.8307,-0.3865l-0.0896,0.2544c-0.0337,0.0973 -0.0655,0.1956 -0.0973,0.2939c-0.0463,0.1407 -0.0916,0.2824 -0.1446,0.4212l-0.0511,0.238l0.2217,0.0916c0.105,0.0443 0.213,0.0887 0.3431,0.1282c0.2853,0.0877 0.5946,0.132 0.9213,0.132c0.0414,0 0.0819,-0.001 0.1243,-0.0019l0.3816,-0.0135l-0.1687,-0.3421c-0.1628,-0.3295 -0.3671,-0.6042 -0.61,-0.8153z" transform="matrix(4.46204 0 0 4.46204 32.8983 17.5291)" fill="#4d4759"/>
       </g>
      </g>
      <path stroke="null" d="m150.73385,22.42843l-14.4046,-0.001l-6.6248,8.7797l-0.0467,0.1118c-1.807,12.0246 3.0724,22.459 13.7396,29.3826l0.1344,0.0867l0.134,-0.0867c10.6821,-6.9187 15.5702,-17.3531 13.7642,-29.3816l-6.6961,-8.8915zm-7.0691,35.7249c-0.0814,0.052 -0.1875,0.0511 -0.266,0c-9.5001,-6.0668 -13.8408,-15.2763 -12.2241,-25.9304c0.0063,-0.0414 0.0226,-0.08 0.0472,-0.1123l5.8412,-7.708c0.0463,-0.0612 0.12,-0.0978 0.1966,-0.0978l12.5441,0c0.0761,0 0.1494,0.0361 0.1956,0.0973l5.8663,7.7085c0.0241,0.0323 0.0405,0.0713 0.0472,0.1118c1.6173,10.6575 -2.733,19.867 -12.2481,25.9309z" transform="matrix(4.46204 0 0 4.46204 32.8983 17.5291)" fill="#ce952d"/>
      <path stroke="null" d="m139.03495,9.42893c0.0631,-0.0699 0.1576,-0.0978 0.2472,-0.0737c0.0901,0.0246 0.1585,0.0964 0.1783,0.1874l0.4433,2.0788l1.4639,-1.966c0.052,-0.0699 0.1185,-0.1089 0.2135,-0.0983c0.0838,0.0053 0.1585,0.052 0.1995,0.1248l1.1425,2.0214l1.1464,-2.0224c0.0424,-0.0747 0.1214,-0.1224 0.1966,-0.1243c0.0916,0.0019 0.185,0.0496 0.2265,0.1156l1.2962,2.0663l1.2712,-2.0639c0.0453,-0.0728 0.1263,-0.1181 0.2178,-0.1181c0.0877,0.0024 0.1677,0.052 0.2101,0.1287l1.1025,2.0229l1.2191,-2.0316c0.0405,-0.0689 0.1108,-0.1123 0.185,-0.1185c0.0867,-0.0024 0.1638,0.027 0.213,0.0848l1.8591,2.1737l-0.2997,-1.0755c-0.2959,-1.0577 -0.8751,-2.0099 -1.0447,-2.2744l-1.2008,-2.0687l-1.1738,2.0133c-0.0289,0.0492 -0.0848,0.1156 -0.2178,0.1219c-0.0896,-0.0019 -0.1715,-0.0525 -0.213,-0.1325l-0.9743,-1.8494l-1.1796,1.8677c-0.0453,0.0718 -0.1494,0.1142 -0.2159,0.1142l-0.001,0c-0.0887,-0.0039 -0.1687,-0.0545 -0.2091,-0.132l-1.0582,-2.0128l-1.0154,1.8475c-0.0472,0.0853 -0.1446,0.1426 -0.2405,0.1277c-0.0978,-0.0092 -0.1812,-0.0757 -0.2115,-0.1696l-0.651,-2.0055l-1.6668,1.7983c-0.0684,0.0742 -0.1759,0.0997 -0.2718,0.0622c-0.0949,-0.0371 -0.1566,-0.1277 -0.1566,-0.2299l0,-1.9097l-3.4535,2.1304l1.1454,0c0.0766,0 0.1499,0.0366 0.1966,0.0978c0.0463,0.0612 0.0617,0.1422 0.041,0.2159c-0.0617,0.2197 -0.6346,2.1785 -1.6297,3.2878l-0.2949,0.3455l0.5874,0.0838l2.3775,-2.6416z" transform="matrix(4.46204 0 0 4.46204 32.8983 17.5291)" fill="#f4e0b6"/>
      <path stroke="null" d="m140.43095,5.25063l0.0019,0.001c0.0776,0.0429 0.1258,0.1253 0.1258,0.2149l0,1.7232l1.5246,-1.6451c0.0597,-0.0641 0.1494,-0.0911 0.2342,-0.0732c0.0853,0.0188 0.1547,0.0819 0.1817,0.1648l0.6048,1.8639l0.9628,-1.7516c0.0424,-0.0771 0.1532,-0.12 0.2188,-0.1277c0.0916,0.001 0.1744,0.0511 0.2159,0.132l1.0736,2.0407l1.1787,-1.8658c0.0472,-0.0742 0.1542,-0.1113 0.2178,-0.1152c0.0887,0.0039 0.1687,0.0545 0.2091,0.1325l0.9647,1.8321l1.1642,-1.9949c0.0887,-0.1494 0.3392,-0.1513 0.426,0.001l1.1256,1.9424l0.1754,-0.5117c0.6804,-1.9815 0.638,-3.0141 0.6091,-3.283l-0.0223,-0.2016l-0.2014,-0.0178c-0.4886,-0.0439 -0.9175,0.014 -1.1999,0.0723c-0.0848,0.0188 -0.1725,-0.0145 -0.2303,-0.0848c-0.3113,-0.372 -0.2207,-0.6192 -0.1263,-0.7724l0.0742,-0.1209l-0.0665,-0.1253c-0.1272,-0.2366 -0.2207,-0.5354 -0.2708,-0.864l-0.052,-0.3421l0.0039,0.0024l0.0164,-0.4144c0.0212,-0.5426 0.1426,-1.0563 0.3498,-1.4851l0.1349,-0.2809l-0.3045,-0.0676c-1.488,-0.3296 -4.3436,-0.6081 -6.7129,1.2346c-1.2852,0.9835 -2.5452,2.7727 -3.6569,4.3513l-1.1844,1.6673l1.9853,-1.2254c0.0755,-0.0459 0.1733,-0.0478 0.249,-0.0059zm4.6023,-2.0243c0.4626,-0.5291 0.7093,-0.8804 1.0592,-1.5102c0.2621,-0.5021 0.6746,-0.6467 1.1941,-0.6467c0.2515,0 0.5281,0.0337 0.825,0.0776c0.2246,0.0342 0.4799,0.0732 0.7777,0.0766c0.0829,-0.0149 0.1706,-0.013 0.3084,0.041l0.3017,0.1793l-0.2872,0.2111l-0.1889,0.1002l-0.0183,0.1479c-0.08,0.6443 -0.4809,1.4418 -1.3415,1.5685c-0.4337,0.053 -0.823,0.001 -1.2018,-0.0506c-0.2323,-0.0313 -0.4857,-0.0617 -0.7633,-0.0679l-0.1157,-0.0024l-0.0761,0.0867c-0.0559,0.0646 -0.0867,0.0988 -0.1128,0.1258c-0.0935,0.0925 -0.2515,0.0935 -0.345,0.0053c-0.0974,-0.0917 -0.1041,-0.2415 -0.0155,-0.3422z" transform="matrix(4.46204 0 0 4.46204 32.8983 17.5291)" fill="#f4e0b6"/>
      <path stroke="null" d="m150.67115,13.79083l-0.8076,2.2715c-0.0318,0.0887 -0.1089,0.1503 -0.2149,0.1629c-0.0829,0.0145 -0.1725,-0.0313 -0.2246,-0.1113l-1.3762,-2.1116l-1.169,2.5414c-0.0405,0.0872 -0.1253,0.1422 -0.2246,0.1436c-0.0935,0 -0.1802,-0.054 -0.2207,-0.1378l-1.1016,-2.2378l-1.4292,2.2605c-0.0453,0.0708 -0.1214,0.1137 -0.2246,0.1137c-0.001,0 -0.0029,0 -0.0039,0c-0.0911,-0.0067 -0.1706,-0.0631 -0.2072,-0.147l-0.971,-2.2354l-1.2124,2.0605c-0.0467,0.081 -0.1561,0.1263 -0.2236,0.1205c-0.0925,-0.0048 -0.174,-0.0602 -0.2125,-0.1436l-0.9262,-2.0301l-1.4234,2.1197c-0.0535,0.0785 -0.1532,0.121 -0.2482,0.1046c-0.0964,-0.0173 -0.1735,-0.0906 -0.1961,-0.186l-0.5214,-2.1978l-1.7526,1.8673l-0.0487,0.0757c-0.0935,0.2294 -0.3484,0.8438 -0.7035,1.6017l-0.0477,0.1022l1.0548,2.3559l1.2095,-2.2725c0.0853,-0.1629 0.3513,-0.1614 0.4366,0.0014l1.1989,2.2908l1.4557,-2.3616c0.0371,-0.0583 0.1118,-0.1219 0.2265,-0.1171c0.0916,0.0063 0.1715,0.0617 0.2091,0.145l1.0572,2.3559l1.4726,-2.4363c0.0419,-0.0694 0.1513,-0.134 0.2193,-0.1181c0.0906,0.0039 0.1715,0.0559 0.212,0.1364l1.1767,2.3535l1.5256,-2.3939c0.0443,-0.0689 0.133,-0.1118 0.2178,-0.1152c0.0877,0.0039 0.1687,0.054 0.2091,0.1315l1.2982,2.4402l1.7155,-2.6484c0.0395,-0.0607 0.132,-0.1036 0.2149,-0.1132c0.0867,0.0029 0.1658,0.0511 0.2082,0.1258l1.3801,2.4508l0.9965,-2.3274l-0.0357,-0.093c-0.1561,-0.4139 -0.2853,-0.8953 -0.3942,-1.4707l-1.5735,-2.3272z" transform="matrix(4.46204 0 0 4.46204 32.8983 17.5291)" fill="url(#svg_139)"/>
      <path stroke="null" d="m147.28555,3.00123c0.1022,0 0.2043,-0.0058 0.3074,-0.0188c0.4472,-0.0651 0.7835,-0.4452 0.9011,-1.0167l0.053,-0.2583l-0.5079,-0.0718c-0.7748,-0.1161 -1.2596,-0.1629 -1.514,0.3171c-0.1214,0.2178 -0.2323,0.4057 -0.3431,0.5797l-0.2082,0.3257l0.5551,0.0742c0.2584,0.0352 0.506,0.0689 0.7566,0.0689z" transform="matrix(4.46204 0 0 4.46204 32.8983 17.5291)" fill="#4d4759"/>
      <path stroke="null" d="m132.55915,23.68563l-0.0578,0.1291l0.0819,0.1152c0.2409,0.3378 0.4708,0.7088 0.7016,1.1338l0.1831,0.3368l2.5414,-3.3683c0.0472,-0.0626 0.119,-0.0983 0.1971,-0.0983l14.6508,0c0.0761,0 0.1494,0.0371 0.1966,0.0988l2.5597,3.3808l0.1821,-0.3368c0.2294,-0.4226 0.4674,-0.8081 0.7084,-1.1459l0.0829,-0.1157l-0.0588,-0.1291c-0.4134,-0.9194 -0.7835,-2.3457 -0.2005,-3.92l0.0838,-0.2265l-0.2246,-0.0887c-0.3749,-0.1479 -0.6968,-0.4096 -0.9849,-0.8004l-0.2554,-0.3469l-1.01,2.3583c-0.0366,0.0853 -0.1205,0.1441 -0.2197,0.1494c-0.0626,0.0039 -0.1542,-0.0034 -0.2226,-0.1258l-1.4263,-2.5298l-1.7212,2.6566c-0.0453,0.0694 -0.132,0.1142 -0.2149,0.1142c-0.001,0 -0.0019,0 -0.0039,0c-0.0867,-0.0043 -0.1667,-0.0545 -0.2072,-0.1316l-1.2962,-2.4368l-1.5323,2.4041c-0.0472,0.0752 -0.132,0.1176 -0.2226,0.1152c-0.0877,-0.0043 -0.1677,-0.0569 -0.2072,-0.1359l-1.1705,-2.3424l-1.4846,2.4551c-0.0448,0.0742 -0.1229,0.1185 -0.2236,0.1185c0,0 -0.0014,0 -0.0019,0c-0.092,-0.0058 -0.173,-0.0617 -0.2106,-0.145l-1.0601,-2.3607l-1.4389,2.3337c-0.0472,0.0747 -0.1373,0.1209 -0.2188,0.1176c-0.0887,-0.0034 -0.1696,-0.0545 -0.2106,-0.1325l-1.1825,-2.26l-1.2264,2.3053c-0.0448,0.0838 -0.147,0.1224 -0.225,0.1306c-0.0949,-0.0034 -0.1783,-0.0593 -0.2173,-0.146l-1.0905,-2.4339l-0.2356,0.4515c-0.4843,0.9276 -0.9401,1.6625 -1.3555,2.1838l-0.058,0.0727l0.0048,0.0925c0.0492,1.0418 -0.2433,1.9367 -0.4977,2.5034z" transform="matrix(4.46204 0 0 4.46204 32.8983 17.5291)" fill="url(#svg_142)"/>
      <path stroke="null" d="m150.13435,2.01683l0.0887,0.3392l0.2891,-0.1976c0.5272,-0.36 1.3329,-0.3927 2.0441,-0.4216l0.0019,-0.0005c0.7835,-0.0318 1.3531,-0.0747 1.5593,-0.3306c0.0848,-0.1036 0.1099,-0.2573 0.0742,-0.4703c-0.2458,-1.4543 -2.3457,-1.5468 -2.9481,-1.5323l-0.0992,0.0015l-0.0713,0.0694c-0.0694,0.0694 -0.1715,0.0916 -0.3123,0.0376l-0.1927,-0.0713l-0.105,0.1764c-0.3846,0.6451 -0.5233,1.6546 -0.3287,2.4001z" transform="matrix(4.46204 0 0 4.46204 32.8983 17.5291)" fill="#ce952d"/>
      <path stroke="null" d="m152.04935,2.25683c-0.7517,0.053 -1.2962,0.1749 -1.5102,0.597l-0.1966,0.3865l0.4327,-0.0284c0.2564,-0.0164 0.5455,-0.0135 0.85,0.0236l0.1581,0.0198l0.0838,-0.1364c0.0964,-0.1585 0.2188,-0.3036 0.3624,-0.4308l0.5474,-0.4824l-0.7276,0.0511z" transform="matrix(4.46204 0 0 4.46204 32.8983 17.5291)" fill="#ce952d"/>
      <path stroke="null" d="m137.48675,13.47903l0.0005,0c0.0626,-0.0675 0.1537,-0.0925 0.2424,-0.0704c0.0882,0.0241 0.1561,0.0935 0.1768,0.1821l0.4973,2.0952l1.3541,-2.0176c0.0477,-0.0704 0.1479,-0.1031 0.2246,-0.1075c0.0891,0.0072 0.1672,0.0622 0.2043,0.1431l0.9131,1.9998l1.2167,-2.0687c0.0482,-0.0819 0.1354,-0.1311 0.2265,-0.121c0.094,0.0058 0.1749,0.0626 0.212,0.1479l0.9792,2.2527l1.4157,-2.2402c0.0453,-0.0708 0.1561,-0.1123 0.2217,-0.1142c0.0896,0.0048 0.1696,0.0573 0.2082,0.1373l1.0678,2.1689l1.1391,-2.4759c0.0386,-0.0819 0.1176,-0.1369 0.212,-0.1441c0.0723,-0.0034 0.1706,0.0366 0.2197,0.1113l1.3473,2.0687l0.8028,-2.2576c0.0308,-0.0877 0.1079,-0.1494 0.2034,-0.1619c0.0877,-0.0125 0.1802,0.0284 0.2323,0.1055l1.248,1.8162l-0.053,-0.8866c-0.0337,-0.557 -0.0453,-1.0726 -0.0482,-1.515l-0.001,-0.1518l-0.0935,-0.0463l-1.8012,-2.1053l-1.2635,2.1077c-0.0434,0.0742 -0.1831,0.1195 -0.2149,0.12c-0.0896,-0.0019 -0.1706,-0.0511 -0.212,-0.1287l-1.1073,-2.0282l-1.2567,2.0393c-0.0424,0.0689 -0.1205,0.1089 -0.2101,0.1176c-0.0838,0 -0.1648,-0.0443 -0.2091,-0.1157l-1.2876,-2.0513l-1.1579,2.0427c-0.0858,0.1537 -0.3416,0.1528 -0.4284,-0.001l-1.1705,-2.0725l-1.5622,2.0985c-0.0573,0.0781 -0.1556,0.1142 -0.2506,0.0935c-0.0949,-0.0207 -0.1691,-0.0949 -0.1889,-0.1894l-0.4568,-2.1376l-2.0932,2.3265l-0.0395,0.0593c-0.1344,0.2843 -0.85,1.7497 -1.7641,2.7043l-0.2983,0.3176l0.5648,0.1253l2.0382,-2.1725z" transform="matrix(4.46204 0 0 4.46204 32.8983 17.5291)" fill="#f4e0b6"/>
      <path stroke="null" d="m142.54925,36.26913l-0.532,1.6239l1.3796,-1.0061c0.0872,-0.0631 0.2082,-0.0622 0.292,-0.0005l1.381,1.0076l-0.532,-1.6249c-0.0328,-0.1022 0.0039,-0.2135 0.0906,-0.2766l1.383,-1.0004l-1.7087,0.0034c-0.107,0 -0.2014,-0.0684 -0.2342,-0.1715l-0.5257,-1.6244l-0.5238,1.6254c-0.0328,0.1022 -0.1272,0.1706 -0.2347,0.1706l-1.7082,-0.0034l1.3825,0.9999c0.0877,0.0636 0.1239,0.1749 0.0906,0.277z" transform="matrix(4.46204 0 0 4.46204 32.8983 17.5291)" fill="#ce952d"/>
      <path stroke="null" d="m146.01245,44.62333l-1.7097,0.0039c-0.107,0 -0.2014,-0.0684 -0.2342,-0.1715l-0.5257,-1.6229l-0.5238,1.6239c-0.0328,0.1022 -0.1272,0.1706 -0.2347,0.1706l-1.7087,-0.0039l1.383,1.0013c0.0877,0.0636 0.1238,0.1754 0.0906,0.2766l-0.5305,1.6239l1.3782,-1.0061c0.0872,-0.0646 0.2082,-0.0626 0.292,-0.001l1.381,1.0081l-0.532,-1.6249c-0.0328,-0.1012 0.0039,-0.213 0.0906,-0.2766l1.3839,-1.0014z" transform="matrix(4.46204 0 0 4.46204 32.8983 17.5291)" fill="#ce952d"/>
      <path stroke="null" d="m131.69125,32.30813l-0.0477,0.1128c-1.1536,7.8241 0.9864,14.9115 6.1882,20.4964l0.4274,0.4587l0,-28.5778l-0.877,0l-5.6909,7.5099z" transform="matrix(4.46204 0 0 4.46204 32.8983 17.5291)" fill="#4d4759"/>
      <path stroke="null" d="m155.43495,32.35923l-5.7535,-7.561l-0.8539,0l0,28.5643l0.4269,-0.4578c5.2013,-5.582 7.3408,-12.665 6.1891,-20.4829l-0.0086,-0.0626z" transform="matrix(4.46204 0 0 4.46204 32.8983 17.5291)" fill="#4d4759"/>
     </g>
    </g>
   </g>

  </g>
 </g>
 <defs>
  <linearGradient id="svg_144" x1="50%" y1="0%" x2="50%" y2="100%">
   <stop offset="32%" stop-color="rgb(77, 71, 89)"/>
   <stop offset="100%" stop-color="rgb(35, 33, 39)"/>
  </linearGradient>
  <linearGradient id="svg_143" x1="50%" y1="0%" x2="50%" y2="100%">
   <stop offset="32%" stop-color="rgb(77, 71, 89)"/>
   <stop offset="100%" stop-color="rgb(35, 33, 39)"/>
  </linearGradient>
  <linearGradient id="svg_142" x1="50%" y1="0%" x2="50%" y2="100%">
   <stop offset="32%" stop-color="rgb(77, 71, 89)"/>
   <stop offset="100%" stop-color="rgb(35, 33, 39)"/>
  </linearGradient>
  <linearGradient id="svg_141" x1="50%" y1="0%" x2="50%" y2="100%">
   <stop offset="32%" stop-color="rgb(77, 71, 89)"/>
   <stop offset="100%" stop-color="rgb(35, 33, 39)"/>
  </linearGradient>
  <linearGradient id="svg_140" x1="50%" y1="0%" x2="50%" y2="100%">
   <stop offset="5%" stop-color="rgb(77, 71, 89)"/>
   <stop offset="83%" stop-color="rgb(244, 224, 182)"/>
  </linearGradient>
  <linearGradient id="svg_139" x1="50%" y1="0%" x2="50%" y2="100%">
   <stop offset="19%" stop-color="rgb(244, 224, 182)"/>
   <stop offset="91%" stop-color="rgb(77, 71, 89)"/>
  </linearGradient>
  <linearGradient id="svg_138" x1="50%" y1="0%" x2="50%" y2="100%">
   <stop offset="3%" stop-color="rgb(77, 71, 89)"/>
   <stop offset="70%" stop-color="rgb(35, 33, 39)"/>
  </linearGradient>
 </defs>
</svg>